<svg width="512" height="512" viewBox="0 0 512 512" fill="none" xmlns="http://www.w3.org/2000/svg">
<g clip-path="url(#clip0_7177_8185)">
<path fill-rule="evenodd" clip-rule="evenodd" d="M0 0H512V512H0V0Z" fill="#229E45"/>
<path fill-rule="evenodd" clip-rule="evenodd" d="M257.12 408.8L498.32 252.24L255.68 95.2L13.68 252.56L257.12 408.8Z" fill="#F8E509"/>
<path fill-rule="evenodd" clip-rule="evenodd" d="M362.24 252C362.24 308.24 316.56 353.84 260.16 353.84C240.006 353.808 220.313 347.802 203.572 336.58C186.83 325.358 173.792 309.425 166.105 290.794C158.418 272.163 156.427 251.671 160.384 231.909C164.341 212.147 174.068 194.002 188.337 179.767C202.605 165.532 220.773 155.848 240.544 151.937C260.316 148.026 280.803 150.066 299.415 157.797C318.028 165.528 333.931 178.603 345.113 195.371C356.296 212.139 362.256 231.846 362.24 252Z" fill="#2B49A3"/>
<path fill-rule="evenodd" clip-rule="evenodd" d="M226.64 313.04L223.44 311.2L220.24 312.8L220.96 309.2L218.4 306.48L222 306.08L223.76 302.88L225.28 306.24L228.8 306.88L226.16 309.28M294.96 330.32L291.84 328.48L288.64 330.08L289.28 326.48L286.8 323.84L290.4 323.44L292.08 320.16L293.68 323.52L297.2 324.16L294.48 326.64M265.52 302.64L262.8 301.04L260 302.48L260.64 299.36L258.4 297.04L261.6 296.72L263.04 293.84L264.32 296.8L267.44 297.36L265.04 299.52M334.64 292.72L331.92 291.12L329.12 292.56L329.76 289.44L327.6 287.2L330.72 286.88L332.16 284.08L333.44 286.96L336.48 287.52L334.16 289.6M264.32 272L261.12 270.24L257.92 271.84L258.56 268.16L256.08 265.52L259.68 265.12L261.36 261.84L262.96 265.2L266.48 265.84L263.76 268.4M180.08 240.4L176.88 238.64L173.68 240.24L174.48 236.56L171.84 233.92L175.52 233.52L177.12 230.24L178.72 233.6L182.24 234.24L179.6 236.72M190.24 282.48L187.04 280.64L183.84 282.24L184.56 278.64L182 276L185.6 275.52L187.28 272.32L188.88 275.68L192.4 276.32L189.76 278.8M295.36 224.96L292.48 223.36L289.6 224.8L290.24 221.6L288 219.2L291.2 218.8L292.72 215.92L294.08 218.96L297.28 219.52L294.88 221.68M289.52 252.32L287.36 251.04L285.04 252.16L285.52 249.6L283.76 247.76L286.32 247.44L287.52 245.2L288.56 247.6L290.96 248L289.2 249.76M175.44 290.08L173.28 288.88L171.12 289.92L171.6 287.52L169.92 285.76L172.32 285.44L173.44 283.28L174.48 285.52L176.88 286L175.04 287.6M335.2 299.84L333.44 298.96L331.68 299.76L332.08 297.92L330.72 296.64L332.64 296.4L333.6 294.8L334.4 296.4L336.4 296.8L334.88 298" fill="#FFFFEF"/>
<path fill-rule="evenodd" clip-rule="evenodd" d="M175.44 290.08L173.28 288.88L171.12 289.92L171.6 287.52L169.92 285.76L172.32 285.44L173.44 283.28L174.48 285.52L176.88 286L175.04 287.6" fill="#FFFFEF"/>
<path fill-rule="evenodd" clip-rule="evenodd" d="M175.44 290.08L173.28 288.88L171.12 289.92L171.6 287.52L169.92 285.76L172.32 285.44L173.44 283.28L174.48 285.52L176.88 286L175.04 287.6M208.88 290L206.8 288.88L204.64 289.92L205.12 287.52L203.44 285.76L205.84 285.44L206.96 283.28L208 285.52L210.4 285.92L208.56 287.6M204.72 301.2L202.64 300L200.48 301.12L200.96 298.72L199.28 296.88L201.68 296.56L202.8 294.4L203.84 296.64L206.24 297.12L204.4 298.72M274.32 280.96L272.24 279.68L270 280.8L270.48 278.4L268.88 276.56L271.28 276.32L272.4 274.16L273.36 276.4L275.76 276.8L274 278.48M253.92 280.88L251.76 279.68L249.6 280.8L250.08 278.4L248.48 276.56L250.88 276.32L252 274.08L252.96 276.4L255.36 276.8L253.6 278.48M198.56 273.84L197.2 273.04L195.84 273.68L196.16 272.16L195.12 271.04L196.64 270.88L197.28 269.52L197.92 270.96L199.44 271.2L198.32 272.24M332.56 308.56L330.48 307.36L328.32 308.48L328.8 306.08L327.12 304.24L329.52 303.92L330.64 301.76L331.68 304L334.08 304.48L332.24 306.08M315.6 310.88L313.84 309.76L312 310.72L312.4 308.64L311.04 307.2L313.04 306.96L314 305.12L314.8 307.04L316.8 307.36L315.28 308.8M323.6 310.64L322 309.68L320.32 310.48L320.64 308.64L319.36 307.28L321.2 307.04L322.08 305.44L322.88 307.04L324.72 307.44L323.36 308.72M346.64 290.48L345.04 289.68L343.44 290.48L343.84 288.64L342.56 287.28L344.4 287.04L345.2 285.44L346 287.12L347.68 287.44L346.4 288.72M315.36 322.16L313.36 321.04L311.2 322L311.68 319.76L310.08 318.16L312.48 317.92L313.52 315.92L314.48 318L316.88 318.4L315.04 319.92M315.52 331.28L313.6 330.16L311.68 331.2L312.16 328.96L310.64 327.36L312.8 327.04L313.76 325.04L314.64 327.12L316.8 327.52L315.2 329.12M300 310.64L298.48 309.68L296.88 310.48L297.2 308.72L296 307.36L297.76 307.2L298.56 305.6L299.36 307.2L301.12 307.52L299.84 308.8M285.6 310.64L284 309.68L282.4 310.48L282.8 308.72L281.52 307.36L283.36 307.2L284.16 305.6L284.96 307.2L286.64 307.52L285.36 308.8M261.04 289.12L259.44 288.24L257.84 289.04L258.24 287.2L256.96 285.92L258.72 285.68L259.52 284.08L260.32 285.68L262.08 286.08L260.8 287.28M263.76 332.88L262.48 332.16L261.04 332.88L261.36 331.28L260.32 330.16L261.84 330L262.56 328.64L263.2 330.08L264.72 330.32L263.6 331.36M226.64 262.08L223.44 260.24L220.24 261.84L220.96 258.24L218.4 255.6L222 255.12L223.76 251.92L225.28 255.28L228.8 255.92L226.16 258.4" fill="#FFFFEF"/>
<path fill-rule="evenodd" clip-rule="evenodd" d="M355.52 288.64C357.502 283.497 359.054 278.199 360.16 272.8C305.92 225.2 245.52 200.8 169.2 205.84C166.432 211.196 164.156 216.792 162.4 222.56C252.8 213.92 319.2 253.92 355.52 288.64Z" fill="white"/>
<path d="M331.2 261.92L333.04 262.96C332.765 263.503 332.681 264.123 332.8 264.72C332.987 265.299 333.388 265.785 333.92 266.08C334.48 266.48 335.04 266.72 335.52 266.64C336 266.64 336.32 266.4 336.56 266.08C336.7 265.868 336.756 265.611 336.72 265.36C336.654 265.064 336.517 264.79 336.32 264.56C336.16 264.32 335.76 263.76 335.12 263.12C334.462 262.441 333.969 261.62 333.68 260.72C333.48 260.039 333.532 259.309 333.826 258.663C334.12 258.017 334.636 257.497 335.28 257.2C335.862 256.957 336.505 256.901 337.12 257.04C337.872 257.213 338.58 257.54 339.2 258C340.32 258.8 341.04 259.6 341.28 260.56C341.391 261.009 341.405 261.476 341.322 261.931C341.24 262.386 341.062 262.819 340.8 263.2L338.88 262C339.12 261.52 339.2 261.04 339.04 260.64C338.96 260.24 338.64 259.84 338.08 259.52C337.669 259.189 337.166 258.994 336.64 258.96C336.495 258.955 336.351 258.99 336.225 259.06C336.098 259.131 335.992 259.234 335.92 259.36C335.76 259.6 335.76 259.84 335.84 260.16C335.92 260.48 336.32 261.12 337.12 261.92C337.92 262.72 338.4 263.44 338.72 263.92C339.006 264.444 339.135 265.04 339.092 265.635C339.05 266.231 338.837 266.802 338.48 267.28C338.106 267.824 337.576 268.242 336.96 268.48C336.36 268.756 335.689 268.84 335.04 268.72C334.32 268.56 333.6 268.24 332.8 267.68C331.6 266.88 330.88 266 330.64 265.04C330.379 263.951 330.551 262.804 331.12 261.84L331.2 261.92ZM321.92 255.84L323.92 256.88C323.672 257.432 323.616 258.052 323.76 258.64C323.965 259.189 324.363 259.644 324.88 259.92C325.52 260.32 326 260.48 326.48 260.4C326.96 260.4 327.28 260.16 327.52 259.76C327.641 259.57 327.698 259.345 327.68 259.12C327.68 258.88 327.52 258.56 327.28 258.32C326.87 257.825 326.443 257.345 326 256.88C325.12 256 324.56 255.28 324.4 254.64C324.269 254.228 324.23 253.793 324.285 253.365C324.341 252.936 324.489 252.525 324.72 252.16C325.024 251.666 325.47 251.276 326 251.04C326.55 250.787 327.163 250.703 327.76 250.8C328.5 250.925 329.207 251.197 329.84 251.6C331.04 252.4 331.76 253.2 332 254.08C332.146 254.53 332.193 255.006 332.137 255.475C332.082 255.944 331.926 256.396 331.68 256.8L329.68 255.68C329.92 255.12 330 254.72 329.84 254.32C329.68 253.92 329.36 253.52 328.8 253.2C328.357 252.882 327.825 252.714 327.28 252.72C327.149 252.729 327.021 252.77 326.91 252.84C326.798 252.91 326.706 253.006 326.64 253.12C326.48 253.36 326.48 253.6 326.56 253.92C326.64 254.24 327.12 254.88 327.92 255.68C328.72 256.48 329.28 257.12 329.52 257.6C329.841 258.102 330.011 258.685 330.011 259.28C330.011 259.875 329.841 260.458 329.52 260.96C329.175 261.518 328.675 261.963 328.08 262.24C327.48 262.516 326.809 262.6 326.16 262.48C325.337 262.341 324.549 262.042 323.84 261.6C322.806 261.049 322.009 260.138 321.6 259.04C321.291 257.972 321.405 256.826 321.92 255.84ZM310.56 252.8L316.4 243.2L323.44 247.6L322.48 249.2L317.36 246L316.08 248.16L320.88 251.12L319.84 252.72L315.04 249.76L313.44 252.4L318.8 255.6L317.84 257.2L310.56 252.8ZM294 239.2L294.88 237.6L299.2 239.76L297.2 243.76C296.56 243.92 295.76 244 294.8 243.92C293.878 243.818 292.983 243.547 292.16 243.12C291.192 242.648 290.364 241.931 289.76 241.04C289.21 240.212 288.93 239.234 288.96 238.24C289.001 237.206 289.274 236.194 289.76 235.28C290.241 234.318 290.956 233.493 291.84 232.88C292.686 232.295 293.692 231.988 294.72 232C295.52 232 296.32 232.24 297.28 232.8C298.56 233.36 299.36 234.16 299.76 235.04C300.176 235.914 300.261 236.908 300 237.84L297.84 237.2C297.972 236.664 297.916 236.099 297.68 235.6C297.44 235.12 297.04 234.8 296.4 234.48C296.027 234.267 295.613 234.136 295.186 234.094C294.758 234.053 294.327 234.103 293.92 234.24C293.12 234.48 292.4 235.2 291.84 236.32C291.28 237.44 291.04 238.48 291.28 239.36C291.391 239.777 291.591 240.165 291.867 240.497C292.144 240.829 292.489 241.096 292.88 241.28C293.28 241.52 293.76 241.68 294.24 241.68C294.717 241.752 295.203 241.752 295.68 241.68L296.32 240.4L294 239.2ZM221.84 221.36L223.44 210.16L226.8 210.72L227.68 218.56L230.8 211.36L234.16 211.84L232.56 222.88L230.4 222.56L231.76 213.84L228.24 222.24L226.08 221.92L225.2 212.88L223.92 221.68L221.84 221.36ZM210.56 220L211.6 208.8L219.84 209.6L219.68 211.52L213.68 210.96L213.44 213.36L219.04 213.92L218.8 215.84L213.2 215.28L212.96 218.32L219.2 218.88L219.04 220.8L210.56 220Z" fill="#309E3A"/>
<path d="M173.2 213.04C173.2 211.84 173.44 210.96 173.76 210.16C174.04 209.591 174.42 209.076 174.88 208.64C175.29 208.226 175.78 207.9 176.32 207.68C177.12 207.44 177.92 207.28 178.72 207.28C180.4 207.28 181.68 207.92 182.72 208.88C183.215 209.492 183.583 210.196 183.803 210.951C184.023 211.707 184.09 212.498 184 213.28C184 215.04 183.44 216.48 182.4 217.52C181.866 218.014 181.233 218.39 180.544 218.625C179.855 218.859 179.125 218.946 178.4 218.88C177.685 218.887 176.976 218.749 176.316 218.474C175.656 218.199 175.058 217.793 174.56 217.28C173.565 216.102 173.076 214.578 173.2 213.04Z" fill="#309E3A"/>
<path d="M175.52 213.04C175.52 214.24 175.76 215.2 176.32 215.92C176.88 216.56 177.6 216.96 178.56 216.96C178.975 216.989 179.392 216.925 179.779 216.773C180.167 216.621 180.516 216.384 180.8 216.08C181.36 215.44 181.6 214.48 181.68 213.12C181.68 211.84 181.52 210.88 180.88 210.24C180.619 209.918 180.29 209.657 179.917 209.477C179.543 209.297 179.135 209.203 178.72 209.2C178.299 209.187 177.88 209.266 177.493 209.431C177.106 209.597 176.761 209.846 176.48 210.16C175.84 210.8 175.6 211.76 175.52 213.04Z" fill="#F7FFFF"/>
<path d="M186.4 218.8L186.56 207.6H191.36C192.56 207.6 193.36 207.76 193.92 208C194.48 208.16 194.88 208.56 195.2 209.04C195.52 209.52 195.68 210.16 195.68 210.88C195.686 211.65 195.4 212.393 194.88 212.96C194.289 213.514 193.528 213.852 192.72 213.92L193.92 214.88C194.24 215.2 194.64 215.84 195.12 216.72L196.48 218.96H193.76L192.16 216.4L191.04 214.8C190.846 214.58 190.598 214.414 190.32 214.32C189.956 214.214 189.579 214.16 189.2 214.16H188.72V218.8H186.4Z" fill="#309E3A"/>
<path d="M188.8 212.4H190.4C191.52 212.4 192.24 212.4 192.48 212.24C192.72 212.24 192.96 212 193.12 211.84C193.28 211.68 193.36 211.28 193.36 211.04C193.36 210.56 193.28 210.24 193.04 210.08C192.88 209.84 192.56 209.68 192.24 209.6H190.64L188.8 209.52V212.4Z" fill="white"/>
<path d="M199.2 208.16L203.36 208.4C204.24 208.4 204.96 208.48 205.44 208.64C206.063 208.866 206.615 209.252 207.04 209.76C207.501 210.319 207.829 210.976 208 211.68C208.24 212.4 208.32 213.28 208.24 214.32C208.239 215.137 208.104 215.947 207.84 216.72C207.52 217.52 207.04 218.16 206.48 218.64C206.014 219.024 205.467 219.298 204.88 219.44C204.4 219.6 203.68 219.6 202.88 219.6L198.64 219.36L199.2 208.16Z" fill="#309E3A"/>
<path d="M201.36 210.16L200.96 217.6H204C204.4 217.6 204.72 217.44 204.96 217.2C205.2 216.96 205.44 216.64 205.6 216.16C205.76 215.68 205.92 214.96 205.92 214.08L205.84 212.08C205.726 211.658 205.505 211.273 205.2 210.96C204.934 210.693 204.603 210.5 204.24 210.4C203.635 210.265 203.019 210.185 202.4 210.16H201.36Z" fill="white"/>
<path d="M254.08 228.16L256.72 217.28L260.24 218.08L262.8 218.88C263.36 219.2 263.84 219.68 264.08 220.4C264.4 221.04 264.4 221.76 264.24 222.64C264.08 223.28 263.84 223.84 263.44 224.24C263.147 224.591 262.78 224.874 262.365 225.067C261.95 225.261 261.498 225.361 261.04 225.36C260.48 225.36 259.68 225.2 258.64 224.96L257.28 224.56L256.32 228.72L254.08 228.16Z" fill="#309E3A"/>
<path d="M258.4 219.68L257.76 222.72L258.96 223.04C259.76 223.2 260.4 223.36 260.72 223.28C261.031 223.237 261.321 223.098 261.551 222.883C261.78 222.668 261.937 222.388 262 222.08C262 221.68 262 221.36 261.84 221.04C261.664 220.715 261.382 220.46 261.04 220.32L259.52 219.92L258.48 219.68H258.4Z" fill="white"/>
<path d="M264.48 231.28L268.24 220.72L272.64 222.32C273.84 222.72 274.56 223.12 275.04 223.44C275.44 223.84 275.76 224.24 275.84 224.88C275.92 225.52 276 226.08 275.84 226.72C275.52 227.52 275.04 228.08 274.4 228.48C273.76 228.8 272.96 228.88 272 228.72C272.32 229.12 272.64 229.52 272.8 230L273.44 232.16L273.92 234.64L271.44 233.76L270.64 230.88C270.495 230.229 270.308 229.587 270.08 228.96C269.974 228.711 269.809 228.492 269.6 228.32C269.44 228.08 269.12 227.92 268.56 227.76L268.16 227.6L266.56 232.08L264.48 231.28Z" fill="#309E3A"/>
<path d="M268.8 225.92L270.32 226.48C271.36 226.88 272 227.04 272.32 227.04C272.56 227.04 272.8 227.04 273.04 226.8C273.28 226.64 273.44 226.4 273.52 226.08C273.68 225.76 273.68 225.44 273.52 225.12C273.402 224.81 273.174 224.554 272.88 224.4L271.28 223.84L269.68 223.28L268.72 225.92H268.8Z" fill="white"/>
<path d="M277.6 230.88C277.875 229.943 278.338 229.072 278.96 228.32C279.365 227.837 279.852 227.431 280.4 227.12C280.896 226.84 281.438 226.65 282 226.56C282.8 226.56 283.6 226.56 284.48 226.88C285.195 227.057 285.864 227.384 286.444 227.839C287.023 228.294 287.499 228.867 287.84 229.52C288.48 230.8 288.48 232.32 288 234.08C287.604 235.592 286.626 236.886 285.28 237.68C284.08 238.4 282.64 238.48 281.12 238C280.407 237.818 279.74 237.49 279.161 237.035C278.582 236.58 278.105 236.01 277.76 235.36C277.44 234.661 277.26 233.905 277.233 233.136C277.206 232.367 277.33 231.6 277.6 230.88Z" fill="#309E3A"/>
<path d="M279.84 231.52C279.52 232.72 279.44 233.76 279.84 234.56C280.24 235.36 280.8 235.84 281.68 236.16C282.48 236.4 283.28 236.32 284.08 235.84C284.88 235.44 285.36 234.56 285.76 233.28C286.16 232.08 286.16 231.12 285.76 230.32C285.602 229.94 285.363 229.6 285.058 229.324C284.754 229.047 284.393 228.841 284 228.72C283.606 228.584 283.188 228.535 282.774 228.577C282.359 228.618 281.959 228.749 281.6 228.96C280.8 229.44 280.24 230.24 279.84 231.52Z" fill="white"/>
<path d="M299.44 246.48L304.56 236.56L308.8 238.72C309.599 239.103 310.329 239.617 310.96 240.24C311.36 240.64 311.6 241.12 311.6 241.76C311.6 242.4 311.6 242.96 311.28 243.52C310.972 244.239 310.399 244.812 309.68 245.12C308.88 245.28 308.08 245.28 307.2 244.96C307.52 245.44 307.68 245.92 307.84 246.32C308 246.8 308.08 247.52 308.16 248.56L308.32 251.12L305.92 249.92L305.6 246.96C305.562 246.289 305.482 245.621 305.36 244.96C305.305 244.661 305.167 244.383 304.96 244.16L304 243.6L303.6 243.36L301.44 247.52L299.44 246.48Z" fill="#309E3A"/>
<path d="M304.4 241.76L305.92 242.56C306.88 243.04 307.52 243.36 307.76 243.36C308 243.36 308.32 243.36 308.56 243.2C308.8 243.12 308.96 242.88 309.12 242.56C309.28 242.24 309.36 241.92 309.28 241.6C309.181 241.282 308.985 241.002 308.72 240.8C308.252 240.513 307.771 240.246 307.28 240L305.68 239.2L304.4 241.76Z" fill="white"/>
<path d="M340.88 266.96C341.398 266.137 342.078 265.43 342.88 264.88C343.418 264.535 344.015 264.292 344.64 264.16C345.221 264.041 345.819 264.041 346.4 264.16C347.2 264.32 347.92 264.64 348.64 265.12C349.263 265.508 349.798 266.021 350.211 266.627C350.624 267.233 350.906 267.919 351.04 268.64C351.28 270 350.88 271.52 349.92 273.04C349.117 274.362 347.822 275.311 346.32 275.68C345.604 275.835 344.863 275.836 344.146 275.685C343.429 275.533 342.752 275.232 342.16 274.8C341.537 274.412 341.002 273.899 340.589 273.293C340.176 272.687 339.894 272.001 339.76 271.28C339.52 269.84 339.92 268.4 340.88 266.96Z" fill="#309E3A"/>
<path d="M342.88 268.24C342.08 269.28 341.84 270.24 342 271.12C342.059 271.525 342.204 271.913 342.424 272.258C342.645 272.603 342.937 272.897 343.28 273.12C344.08 273.68 344.88 273.84 345.68 273.6C346.48 273.36 347.28 272.8 348 271.68C348.72 270.56 349.04 269.6 348.88 268.8C348.8 268 348.32 267.28 347.6 266.72C346.88 266.16 346 266.08 345.2 266.32C344.4 266.48 343.6 267.12 342.8 268.24H342.88Z" fill="white"/>
<path d="M241.44 223.6L243.28 215.76L249.04 217.12L248.8 218.4L244.56 217.44L244.16 219.2L248.08 220.08L247.76 221.44L243.84 220.48L243.36 222.64L247.76 223.68L247.44 224.96L241.44 223.6Z" fill="#309E3A"/>
</g>
<defs>
<clipPath id="clip0_7177_8185">
<rect width="512" height="512" fill="white"/>
</clipPath>
</defs>
</svg>
