<svg width="32" height="32" viewBox="0 0 32 32" fill="none" xmlns="http://www.w3.org/2000/svg">
<path fill-rule="evenodd" clip-rule="evenodd" d="M28 16.0001C28 19.0735 26.8446 21.877 24.9444 24.0001C22.7471 26.4551 19.554 28.0001 16 28.0001C12.446 28.0001 9.25286 26.4551 7.05557 24.0001C5.15541 21.877 4 19.0735 4 16.0001C4 9.37264 9.37258 4.00006 16 4.00006C22.6274 4.00006 28 9.37264 28 16.0001ZM16 6.76922C13.7909 6.76922 12 8.56008 12 10.7692C12 12.9784 13.7909 14.7692 16 14.7692C18.2092 14.7692 20 12.9784 20 10.7692C20 8.56008 18.2092 6.76922 16 6.76922ZM16 16.3077C13.0497 16.3077 10.3249 17.8866 8.85797 20.4464L8.75436 20.6272C8.48597 21.0955 8.53327 21.6862 8.90691 22.0758C10.7823 24.0309 13.1351 25.2308 16 25.2308C18.8649 25.2308 21.2177 24.0309 23.0931 22.0758C23.4668 21.6862 23.5141 21.0955 23.2457 20.6272L23.1421 20.4464C21.6751 17.8866 18.9504 16.3077 16 16.3077Z" fill="white"/>
</svg>
