<svg width="32" height="32" viewBox="0 0 32 32" fill="none" xmlns="http://www.w3.org/2000/svg">
<path d="M9.00638 4.10086C10.8472 3.19744 13.3204 2.66663 16 2.66663C18.6795 2.66663 21.1528 3.19744 22.9935 4.10086C23.9121 4.5517 24.7194 5.11794 25.3116 5.80504C25.908 6.49706 26.3333 7.37272 26.3333 8.39243V9.81659C25.9583 10.0545 25.5323 10.2848 25.0567 10.5027C22.7888 11.5415 19.5872 12.2096 16 12.2096C12.4127 12.2096 9.21112 11.5415 6.94326 10.5027C6.46759 10.2848 6.04164 10.0545 5.66663 9.81659V8.39243C5.66663 7.37272 6.09194 6.49706 6.68834 5.80504C7.28049 5.11794 8.08777 4.5517 9.00638 4.10086Z" fill="white"/>
<path d="M5.66663 16.6876V12.7528C5.84076 12.8417 6.01883 12.9277 6.20048 13.0109C8.75834 14.1826 12.2234 14.8817 16 14.8817C16.5481 14.8817 17.0898 14.8669 17.623 14.8382C18.4761 14.7922 18.9027 14.7691 19.1866 14.8894C19.4984 15.0214 19.7159 15.2276 19.8646 15.5318C20 15.8088 20 16.2056 20 16.9993C20 17.6018 20 17.9031 19.8855 18.1612C19.7717 18.418 19.5486 18.6595 19.3016 18.7932C19.0534 18.9277 18.7754 18.9497 18.2194 18.9937C17.5003 19.0507 16.7588 19.0806 16 19.0806C12.4127 19.0806 9.21112 18.4125 6.94326 17.3737C6.46759 17.1558 6.04164 16.9255 5.66663 16.6876Z" fill="white"/>
<path d="M20 23.8569C20 22.7359 20 22.1754 19.7322 21.8194C19.6406 21.6977 19.5486 21.6094 19.4232 21.523C19.0564 21.2702 18.456 21.2951 17.2551 21.345C16.8412 21.3622 16.4225 21.3709 16 21.3709C12.2234 21.3709 8.75834 20.6718 6.20048 19.5002C6.01883 19.417 5.84076 19.3309 5.66663 19.242V20.6075C5.66663 21.6272 6.09194 22.5029 6.68834 23.1949C7.28049 23.882 8.08777 24.4482 9.00638 24.8991C10.8472 25.8025 13.3204 26.3333 16 26.3333C16.7161 26.3333 17.4175 26.2954 18.096 26.2226C18.8377 26.143 19.2085 26.1032 19.5179 25.8466C19.6107 25.7696 19.7112 25.6577 19.7778 25.5572C20 25.2223 20 24.8098 20 23.9849V23.8569Z" fill="white"/>
<path d="M27.4387 17.1929H24.4562C23.9816 17.1929 23.5265 17.3814 23.1909 17.717C22.8553 18.0526 22.6667 18.5077 22.6667 18.9823C22.6667 19.4569 22.8553 19.9121 23.1909 20.2477C23.5265 20.5833 23.9816 20.7718 24.4562 20.7718H25.6492C26.1238 20.7718 26.579 20.9603 26.9146 21.2959C27.2501 21.6315 27.4387 22.0867 27.4387 22.5613C27.4387 23.0359 27.2501 23.491 26.9146 23.8266C26.579 24.1622 26.1238 24.3508 25.6492 24.3508H22.6667M25.0527 24.3508V25.5437M25.0527 15.9999V17.1929" stroke="white" stroke-width="2.13333" stroke-linecap="round" stroke-linejoin="round"/>
</svg>
