<svg width="32" height="32" viewBox="0 0 32 32" fill="none" xmlns="http://www.w3.org/2000/svg">
<path d="M23.7549 7.18527V7.18527C23.8871 5.4671 22.5285 4.00006 20.8053 4.00006H11.1945C9.47129 4.00006 8.11277 5.4671 8.24493 7.18527V7.18527M23.7549 7.18527L23.1779 14.6864C22.8894 18.4371 19.7618 21.3334 15.9999 21.3334V21.3334M23.7549 7.18527V7.18527C26.3574 7.18527 28.3658 9.47482 28.0268 12.0551L27.9011 13.0116C27.5762 15.4845 25.4684 17.3334 22.9743 17.3334V17.3334M8.24493 7.18527L8.82194 14.6864C9.11046 18.4371 12.2381 21.3334 15.9999 21.3334V21.3334M8.24493 7.18527V7.18527C5.64247 7.18527 3.63407 9.47482 3.97309 12.0551L4.09875 13.0116C4.42366 15.4845 6.53139 17.3334 9.02556 17.3334V17.3334M15.9999 21.3334V24.0001M15.9999 24.0001L18.9516 25.7711C20.2707 26.5625 20.9302 26.9582 20.9263 27.3401C20.9252 27.4564 20.8936 27.5703 20.8348 27.6706C20.6416 28.0001 19.8725 28.0001 18.3342 28.0001H13.6656C12.1274 28.0001 11.3582 28.0001 11.165 27.6706C11.1062 27.5703 11.0747 27.4564 11.0735 27.3401C11.0696 26.9582 11.7292 26.5625 13.0482 25.7711L15.9999 24.0001Z" stroke="#999999" stroke-width="2" stroke-linejoin="round"/>
<path d="M14.924 9.84707C15.3366 9.01099 15.5429 8.59295 15.8529 8.52282C15.9498 8.50091 16.0503 8.50091 16.1471 8.52282C16.4572 8.59295 16.6635 9.01099 17.0761 9.84707L17.1629 10.0229C17.2842 10.2687 17.3449 10.3916 17.4427 10.4783C17.4749 10.5068 17.5098 10.5322 17.5469 10.554C17.6596 10.6203 17.7952 10.64 18.0664 10.6794L18.2605 10.7076C19.1832 10.8416 19.6445 10.9087 19.807 11.1819C19.8578 11.2672 19.8888 11.3628 19.8979 11.4617C19.927 11.7782 19.5932 12.1036 18.9256 12.7544L18.7851 12.8913C18.5889 13.0826 18.4908 13.1782 18.4385 13.2981C18.4213 13.3375 18.408 13.3786 18.3987 13.4206C18.3705 13.5483 18.3937 13.6833 18.44 13.9535L18.4732 14.1467C18.6308 15.0657 18.7096 15.5251 18.5 15.7641C18.4345 15.8388 18.3532 15.8979 18.262 15.937C17.9699 16.0625 17.5573 15.8456 16.732 15.4118L16.5584 15.3205C16.3159 15.193 16.1946 15.1292 16.0645 15.1166C16.0216 15.1124 15.9785 15.1124 15.9356 15.1166C15.8055 15.1292 15.6842 15.193 15.4416 15.3205L15.268 15.4118C14.4428 15.8456 14.0302 16.0625 13.7381 15.937C13.6469 15.8979 13.5656 15.8388 13.5001 15.7641C13.2905 15.5251 13.3693 15.0657 13.5269 14.1467L13.5601 13.9535C13.6064 13.6833 13.6296 13.5483 13.6014 13.4206C13.5921 13.3786 13.5787 13.3375 13.5615 13.2981C13.5093 13.1782 13.4112 13.0826 13.2149 12.8913L13.0745 12.7544C12.4069 12.1036 12.073 11.7782 12.1021 11.4617C12.1112 11.3628 12.1423 11.2672 12.1931 11.1819C12.3556 10.9087 12.8169 10.8416 13.7396 10.7076L13.9336 10.6794C14.2049 10.64 14.3405 10.6203 14.4531 10.554C14.4903 10.5322 14.5252 10.5068 14.5574 10.4783C14.6552 10.3916 14.7159 10.2687 14.8372 10.0229L14.924 9.84707Z" stroke="#999999" stroke-width="2" stroke-linejoin="round"/>
</svg>
