<svg width="32" height="32" viewBox="0 0 32 32" fill="none" xmlns="http://www.w3.org/2000/svg">
<path d="M20.7467 5.56536C18.8015 6.04625 17.1076 7.23959 16 8.90936C14.8924 7.23959 13.1985 6.04625 11.2534 5.56536C11.7009 4.69175 12.3809 3.95861 13.2184 3.44666C14.0559 2.93471 15.0184 2.66382 16 2.66382C16.9816 2.66382 17.9442 2.93471 18.7817 3.44666C19.6192 3.95861 20.2991 4.69175 20.7467 5.56536ZM5.40936 18.7227C5.69608 16.3522 6.76949 14.1463 8.4579 12.4579C10.1463 10.7695 12.3522 9.69608 14.7227 9.40936C14.1554 8.63158 13.4265 7.98586 12.5859 7.51662C11.7454 7.04739 10.8132 6.76575 9.8534 6.69109C8.89363 6.61643 7.92908 6.75051 7.02607 7.08411C6.12306 7.41771 5.30301 7.94293 4.6223 8.62363C3.94159 9.30434 3.41638 10.1244 3.08278 11.0274C2.74918 11.9304 2.6151 12.895 2.68976 13.8547C2.76442 14.8145 3.04605 15.7467 3.51529 16.5873C3.98453 17.4278 4.63024 18.1568 5.40803 18.724M26.5894 18.724C27.3671 18.1568 28.0129 17.4278 28.4821 16.5873C28.9513 15.7467 29.233 14.8145 29.3076 13.8547C29.3823 12.895 29.2482 11.9304 28.9146 11.0274C28.581 10.1244 28.0558 9.30434 27.3751 8.62363C26.6944 7.94293 25.8743 7.41771 24.9713 7.08411C24.0683 6.75051 23.1038 6.61643 22.144 6.69109C21.1842 6.76575 20.252 7.04739 19.4115 7.51662C18.5709 7.98586 17.8419 8.63158 17.2747 9.40936C19.6456 9.69586 21.852 10.7693 23.5407 12.458C25.2294 14.1468 26.3029 16.3531 26.5894 18.724ZM16 29.3334C18.4754 29.3334 20.8494 28.35 22.5997 26.5997C24.35 24.8494 25.3334 22.4754 25.3334 20C25.3334 17.5247 24.35 15.1507 22.5997 13.4004C20.8494 11.65 18.4754 10.6667 16 10.6667C13.5247 10.6667 11.1507 11.65 9.40037 13.4004C7.65003 15.1507 6.6667 17.5247 6.6667 20C6.6667 22.4754 7.65003 24.8494 9.40037 26.5997C11.1507 28.35 13.5247 29.3334 16 29.3334ZM12.6667 17.6667C12.6667 17.4015 12.7721 17.1471 12.9596 16.9596C13.1471 16.7721 13.4015 16.6667 13.6667 16.6667H19.3334C19.5365 16.6668 19.7348 16.7288 19.9018 16.8445C20.0689 16.9601 20.1967 17.1238 20.2684 17.3139C20.3401 17.504 20.3521 17.7114 20.303 17.9085C20.2539 18.1057 20.1459 18.2831 19.9934 18.4174V18.4187L19.976 18.4334L19.9054 18.5C19.4608 18.9352 19.0486 19.4022 18.672 19.8974C17.9294 20.872 17.088 22.2574 16.632 23.9294C16.5975 24.0561 16.5384 24.1749 16.458 24.2788C16.3776 24.3827 16.2776 24.4698 16.1636 24.535C16.0495 24.6003 15.9238 24.6424 15.7934 24.6591C15.6631 24.6757 15.5308 24.6665 15.404 24.632C15.2773 24.5975 15.1585 24.5384 15.0546 24.458C14.9507 24.3776 14.8636 24.2776 14.7984 24.1636C14.7331 24.0495 14.691 23.9238 14.6743 23.7934C14.6577 23.6631 14.6669 23.5308 14.7014 23.404C15.2454 21.4094 16.2374 19.7947 17.0787 18.6867L17.0934 18.6667H13.6667C13.4015 18.6667 13.1471 18.5613 12.9596 18.3738C12.7721 18.1863 12.6667 17.9319 12.6667 17.6667Z" fill="white"/>
</svg>
