<svg width="32" height="32" viewBox="0 0 32 32" fill="none" xmlns="http://www.w3.org/2000/svg">
<path d="M23.9506 23.1111C25.6396 21.224 26.6666 18.7319 26.6666 16C26.6666 10.1089 21.891 5.33331 16 5.33331C10.1089 5.33331 5.33331 10.1089 5.33331 16C5.33331 18.7319 6.36035 21.224 8.04938 23.1111M23.9506 23.1111C21.9974 25.2933 19.1591 26.6666 16 26.6666C12.8409 26.6666 10.0025 25.2933 8.04938 23.1111M23.9506 23.1111L23.3986 22.2959C21.7364 19.8409 18.9647 18.3704 16 18.3704V18.3704C13.0352 18.3704 10.2635 19.8409 8.60132 22.2959L8.04938 23.1111M16 15.4074C14.3636 15.4074 13.037 14.0808 13.037 12.4444C13.037 10.808 14.3636 9.48146 16 9.48146C17.6364 9.48146 18.9629 10.808 18.9629 12.4444C18.9629 14.0808 17.6364 15.4074 16 15.4074Z" stroke="#999999" stroke-width="2" stroke-linejoin="round"/>
</svg>
