<svg width="32" height="32" viewBox="0 0 32 32" fill="none" xmlns="http://www.w3.org/2000/svg">
<path d="M19.6083 25.3333C21.5077 25.3333 22.4575 25.3333 23.1479 24.8474C23.318 24.7277 23.4734 24.5886 23.6111 24.4328C24.1703 23.8003 24.2752 22.8563 24.4849 20.9685L24.7279 18.7818C24.9845 16.4724 25.1128 15.3177 24.5615 14.5041C24.4271 14.3058 24.2667 14.1265 24.0845 13.9711C23.3367 13.3333 22.1749 13.3333 19.8512 13.3333H12.1487C9.82502 13.3333 8.6632 13.3333 7.91545 13.9711C7.73323 14.1265 7.57278 14.3058 7.43843 14.5041C6.88711 15.3177 7.01541 16.4724 7.27202 18.7818L7.51498 20.9685C7.72474 22.8563 7.82962 23.8003 8.38883 24.4328C8.52652 24.5886 8.68196 24.7277 8.85198 24.8474C9.54243 25.3333 10.4922 25.3333 12.3916 25.3333H19.6083Z" stroke="#999999" stroke-width="2.4" stroke-linecap="round" stroke-linejoin="round"/>
<path d="M16 22.6666V13.3333" stroke="#999999" stroke-width="2.4" stroke-linecap="round" stroke-linejoin="round"/>
<path d="M25.3333 9.33337H6.66665C5.93027 9.33337 5.33331 9.93033 5.33331 10.6667V12C5.33331 12.7364 5.93027 13.3334 6.66665 13.3334H25.3333C26.0697 13.3334 26.6666 12.7364 26.6666 12V10.6667C26.6666 9.93033 26.0697 9.33337 25.3333 9.33337Z" stroke="#999999" stroke-width="2.4" stroke-linejoin="round"/>
<path d="M10.6667 5.33331L16 7.33331L21.3334 5.33331M10.6667 5.33331L16 9.33331L21.3334 5.33331M10.6667 5.33331L16 6.66665L21.3334 5.33331" stroke="#999999" stroke-width="2.4" stroke-linecap="round" stroke-linejoin="round"/>
</svg>
