<svg width="32" height="32" viewBox="0 0 32 32" fill="none" xmlns="http://www.w3.org/2000/svg">
<path d="M23.755 7.1853V7.1853C26.3575 7.1853 28.3659 9.47485 28.0269 12.0551L27.9012 13.0116C27.5763 15.4845 25.4686 17.3334 22.9744 17.3334V17.3334M8.24506 7.1853V7.1853C5.6426 7.1853 3.63419 9.47485 3.97321 12.0551L4.09887 13.0116C4.42378 15.4845 6.53151 17.3334 9.02568 17.3334V17.3334M16 21.3334V24.0001" stroke="white" stroke-width="2" stroke-linejoin="round"/>
<path d="M15.9999 22.8339L14.5353 23.7127C11.6277 25.4572 10.1739 26.3295 10.0834 27.1511C10.0367 27.5757 10.1548 28.0021 10.4134 28.3422C10.9136 29.0001 12.609 29.0001 15.9999 29.0001C19.3907 29.0001 21.0862 29.0001 21.5864 28.3422C21.845 28.0021 21.9631 27.5757 21.9163 27.1511C21.8259 26.3295 20.3721 25.4572 17.4644 23.7127L15.9999 22.8339Z" fill="white"/>
<path fill-rule="evenodd" clip-rule="evenodd" d="M24.4483 10.1268C24.651 7.51453 24.7523 6.20841 24.2607 5.21948C23.9197 4.53344 23.3888 3.95978 22.7312 3.56669C21.7832 3.00006 20.4732 3.00006 17.8531 3.00006H14.1493C11.5293 3.00006 10.2192 3.00006 9.27128 3.56669C8.61367 3.95978 8.08279 4.53344 7.74175 5.21948C7.25014 6.20841 7.35148 7.51453 7.55415 10.1268L7.92107 14.8559C7.92806 14.946 7.93156 14.9911 7.93495 15.0299C8.29354 19.1327 11.7084 22.2929 15.8266 22.333C15.8656 22.3334 15.9108 22.3334 16.0012 22.3334C16.0916 22.3334 16.1369 22.3334 16.1758 22.333C20.2941 22.2929 23.7089 19.1327 24.0675 15.0299C24.0709 14.9911 24.0744 14.946 24.0814 14.8559L24.4483 10.1268ZM17.5736 10.5093L17.0823 9.51378C16.6697 8.6777 16.4633 8.25966 16.1533 8.18952C16.0565 8.16762 15.956 8.16762 15.8591 8.18952C15.5491 8.25966 15.3428 8.6777 14.9301 9.51378L14.4388 10.5093L13.3401 10.669C12.4174 10.8031 11.9561 10.8701 11.7936 11.1433C11.7428 11.2286 11.7118 11.3242 11.7027 11.4231C11.6736 11.7396 12.0074 12.065 12.675 12.7158L13.4701 13.4908L13.2824 14.585C13.1248 15.5039 13.046 15.9634 13.2556 16.2024C13.321 16.277 13.4024 16.3361 13.4936 16.3753C13.7856 16.5008 14.1983 16.2839 15.0235 15.85L16.0062 15.3334L16.9889 15.85C17.8142 16.2839 18.2268 16.5008 18.5188 16.3753C18.6101 16.3361 18.6914 16.277 18.7568 16.2024C18.9665 15.9634 18.8876 15.5039 18.73 14.585L18.5424 13.4908L19.3374 12.7158C20.005 12.065 20.3388 11.7396 20.3097 11.4231C20.3006 11.3242 20.2696 11.2286 20.2188 11.1433C20.0563 10.8701 19.595 10.8031 18.6723 10.669L17.5736 10.5093Z" fill="white"/>
</svg>
