<svg width="32" height="32" viewBox="0 0 32 32" fill="none" xmlns="http://www.w3.org/2000/svg">
<path d="M6.52631 8.91208C6.52631 10.8888 10.7996 12.491 16.0702 12.491C21.3408 12.491 25.614 10.8888 25.614 8.91208C25.614 6.93531 21.3408 5.33313 16.0702 5.33313C10.7996 5.33313 6.52631 6.93531 6.52631 8.91208Z" stroke="#999999" stroke-width="2.13333" stroke-linecap="round" stroke-linejoin="round"/>
<path d="M6.52631 8.91223V16.0701C6.52631 18.0469 10.7996 19.6491 16.0702 19.6491C16.5657 19.6491 17.0508 19.6352 17.5256 19.6073M25.614 13.6842V8.91223" stroke="#999999" stroke-width="2.13333" stroke-linecap="round" stroke-linejoin="round"/>
<path d="M6.52631 16.0702V23.2281C6.52631 25.2049 10.7996 26.807 16.0702 26.807C16.4901 26.807 16.9025 26.7971 17.3073 26.7772M26.807 19.6491H23.8246C23.35 19.6491 22.8948 19.8377 22.5592 20.1733C22.2236 20.5089 22.0351 20.964 22.0351 21.4386C22.0351 21.9132 22.2236 22.3684 22.5592 22.704C22.8948 23.0396 23.35 23.2281 23.8246 23.2281H25.0175C25.4921 23.2281 25.9473 23.4166 26.2829 23.7522C26.6185 24.0878 26.807 24.543 26.807 25.0176C26.807 25.4922 26.6185 25.9473 26.2829 26.2829C25.9473 26.6185 25.4921 26.807 25.0175 26.807H22.0351M24.421 26.807V28M24.421 18.4562V19.6491" stroke="#999999" stroke-width="2.13333" stroke-linecap="round" stroke-linejoin="round"/>
</svg>
