<svg width="32" height="32" viewBox="0 0 32 32" fill="none" xmlns="http://www.w3.org/2000/svg">
<path d="M18.8641 6.29336C18.5686 5.79718 18.1493 5.38627 17.6472 5.1009C17.1452 4.81553 16.5776 4.6655 16.0001 4.6655C15.4226 4.6655 14.855 4.81553 14.3529 5.1009C13.8509 5.38627 13.4316 5.79718 13.1361 6.29336C12.5418 5.97218 11.9092 5.72757 11.2534 5.56536C11.701 4.69175 12.381 3.95861 13.2185 3.44666C14.056 2.93471 15.0185 2.66382 16.0001 2.66382C16.9817 2.66382 17.9442 2.93471 18.7817 3.44666C19.6192 3.95861 20.2992 4.69175 20.7468 5.56536C20.091 5.72757 19.4584 5.97218 18.8641 6.29336ZM12.5121 9.91603C13.2289 9.66906 13.97 9.49921 14.7228 9.40936C14.1555 8.63158 13.4265 7.98586 12.586 7.51662C11.7454 7.04739 10.8132 6.76575 9.85346 6.69109C8.89369 6.61643 7.92914 6.75051 7.02613 7.08411C6.12312 7.41771 5.30307 7.94293 4.62236 8.62363C3.94165 9.30434 3.41644 10.1244 3.08284 11.0274C2.74924 11.9304 2.61516 12.895 2.68982 13.8547C2.76448 14.8145 3.04612 15.7467 3.51535 16.5873C3.98459 17.4278 4.6303 18.1568 5.40809 18.724C5.49828 17.9707 5.66857 17.2292 5.91609 16.512C5.08895 15.6278 4.63783 14.4568 4.658 13.2462C4.67817 12.0356 5.16806 10.8803 6.02419 10.0241C6.88033 9.16799 8.03569 8.67811 9.24628 8.65794C10.4569 8.63777 11.6279 9.08889 12.5121 9.91603ZM26.5921 18.7227C27.3699 18.1554 28.0156 17.4265 28.4848 16.5859C28.9541 15.7454 29.2357 14.8132 29.3104 13.8534C29.385 12.8936 29.2509 11.9291 28.9173 11.0261C28.5837 10.1231 28.0585 9.303 27.3778 8.6223C26.6971 7.94159 25.8771 7.41638 24.9741 7.08278C24.071 6.74918 23.1065 6.6151 22.1467 6.68976C21.187 6.76442 20.2548 7.04605 19.4142 7.51529C18.5736 7.98453 17.8447 8.63024 17.2774 9.40803C18.0303 9.49831 18.7714 9.6686 19.4881 9.91603C20.3723 9.08889 21.5433 8.63777 22.7539 8.65794C23.9645 8.67811 25.1199 9.16799 25.976 10.0241C26.8321 10.8803 27.322 12.0356 27.3422 13.2462C27.3624 14.4568 26.9112 15.6278 26.0841 16.512C26.3294 17.2205 26.4996 17.9574 26.5921 18.7227ZM12.6668 17.6667C12.6668 17.4015 12.7721 17.1471 12.9597 16.9596C13.1472 16.7721 13.4015 16.6667 13.6668 16.6667H19.3334C19.5366 16.6668 19.7349 16.7288 19.9019 16.8445C20.0689 16.9601 20.1968 17.1238 20.2685 17.3139C20.3401 17.504 20.3522 17.7114 20.3031 17.9085C20.2539 18.1057 20.1459 18.2831 19.9934 18.4174V18.4187L19.9761 18.4334L19.9054 18.5C19.4609 18.9352 19.0487 19.4022 18.6721 19.8974C17.9294 20.872 17.0881 22.2574 16.6321 23.9294C16.5976 24.0561 16.5385 24.1749 16.4581 24.2788C16.3777 24.3827 16.2776 24.4698 16.1636 24.535C16.0496 24.6003 15.9238 24.6424 15.7935 24.6591C15.6632 24.6757 15.5309 24.6665 15.4041 24.632C15.2773 24.5975 15.1586 24.5384 15.0547 24.458C14.9507 24.3776 14.8637 24.2776 14.7984 24.1636C14.7332 24.0495 14.691 23.9238 14.6744 23.7934C14.6577 23.6631 14.6669 23.5308 14.7014 23.404C15.2454 21.4094 16.2374 19.7947 17.0788 18.6867L17.0934 18.6667H13.6668C13.4015 18.6667 13.1472 18.5613 12.9597 18.3738C12.7721 18.1863 12.6668 17.9319 12.6668 17.6667ZM16.0001 29.3334C18.4754 29.3334 20.8494 28.35 22.5998 26.5997C24.3501 24.8494 25.3334 22.4754 25.3334 20C25.3334 17.5247 24.3501 15.1507 22.5998 13.4004C20.8494 11.65 18.4754 10.6667 16.0001 10.6667C13.5247 10.6667 11.1508 11.65 9.40043 13.4004C7.65009 15.1507 6.66676 17.5247 6.66676 20C6.66676 22.4754 7.65009 24.8494 9.40043 26.5997C11.1508 28.35 13.5247 29.3334 16.0001 29.3334ZM16.0001 27.3334C14.0552 27.3334 12.1899 26.5607 10.8146 25.1855C9.43937 23.8102 8.66676 21.945 8.66676 20C8.66676 18.0551 9.43937 16.1898 10.8146 14.8146C12.1899 13.4393 14.0552 12.6667 16.0001 12.6667C17.945 12.6667 19.8103 13.4393 21.1855 14.8146C22.5608 16.1898 23.3334 18.0551 23.3334 20C23.3334 21.945 22.5608 23.8102 21.1855 25.1855C19.8103 26.5607 17.945 27.3334 16.0001 27.3334Z" fill="#999999"/>
</svg>
