<svg width="32" height="32" viewBox="0 0 32 32" fill="none" xmlns="http://www.w3.org/2000/svg">
<g clip-path="url(#clip0_1899_4986)">
<path d="M20.0062 0H11.9938C5.36981 0 0 5.36981 0 11.9938V20.0062C0 26.6302 5.36981 32 11.9938 32H20.0062C26.6302 32 32 26.6302 32 20.0062V11.9938C32 5.36981 26.6302 0 20.0062 0Z" fill="#26313B"/>
<path d="M20.0061 2.47461H11.9937C6.73606 2.47461 2.47388 6.73679 2.47388 11.9945V20.0068C2.47388 25.2645 6.73606 29.5267 11.9937 29.5267H20.0061C25.2638 29.5267 29.5259 25.2645 29.5259 20.0068V11.9945C29.5259 6.73679 25.2638 2.47461 20.0061 2.47461Z" fill="#2B3146"/>
<g style="mix-blend-mode:multiply" opacity="0.6">
<path d="M20.0061 26.721H11.9938C9.46894 26.721 7.04753 25.718 5.26221 23.9327C3.47689 22.1474 2.47388 19.726 2.47388 17.2012V20.005C2.47388 22.5298 3.47689 24.9512 5.26221 26.7366C7.04753 28.5219 9.46894 29.5249 11.9938 29.5249H20.0061C22.5309 29.5249 24.9523 28.5219 26.7376 26.7366C28.523 24.9512 29.5259 22.5298 29.5259 20.005V17.2012C29.5259 19.726 28.523 22.1474 26.7376 23.9327C24.9523 25.718 22.5309 26.721 20.0061 26.721Z" fill="#5B6378"/>
</g>
<path d="M20.0061 2.47461H11.9938C9.46894 2.47461 7.04753 3.47758 5.26221 5.2629C3.47689 7.04822 2.47388 9.46963 2.47388 11.9944V14.7983C2.47359 13.051 2.95437 11.3373 3.86351 9.84514C4.77266 8.35298 6.07507 7.13992 7.62798 6.33894C7.62798 6.35214 7.62798 6.36698 7.62798 6.38017C7.62554 6.73324 7.70412 7.08217 7.85762 7.40012C8.01113 7.71808 8.23549 7.99659 8.51348 8.21425C8.79148 8.43192 9.1157 8.58294 9.4612 8.65569C9.80669 8.72845 10.1643 8.72098 10.5064 8.63391C10.8486 8.54684 11.1662 8.38246 11.4349 8.15341C11.7036 7.92436 11.9162 7.63676 12.0564 7.31269C12.1965 6.98862 12.2604 6.63671 12.2433 6.28406C12.2261 5.9314 12.1283 5.58739 11.9574 5.27844H20.0077C22.5326 5.27844 24.954 6.28142 26.7393 8.06674C28.5246 9.85205 29.5276 12.2735 29.5276 14.7983V11.9944C29.5276 10.7441 29.2813 9.50608 28.8028 8.35098C28.3243 7.19587 27.6229 6.14634 26.7387 5.26232C25.8546 4.3783 24.8049 3.6771 23.6497 3.19878C22.4945 2.72046 21.2564 2.47439 20.0061 2.47461Z" fill="#5B6378"/>
<path d="M14.0772 11.6733C14.8848 11.4827 15.385 10.6734 15.1944 9.86581C15.0038 9.05817 14.1945 8.55799 13.3869 8.74861C12.5793 8.93923 12.0791 9.74846 12.2697 10.5561C12.4603 11.3637 13.2695 11.8639 14.0772 11.6733Z" fill="#5B6378"/>
<path d="M9.73084 10.2891C9.59181 10.2887 9.45581 10.3297 9.34005 10.4067C9.22429 10.4837 9.13401 10.5933 9.08058 10.7216C9.02715 10.85 9.01298 10.9913 9.03991 11.1277C9.06683 11.2641 9.13362 11.3895 9.23182 11.4879C9.33001 11.5863 9.45518 11.6534 9.59152 11.6807C9.72786 11.7079 9.86921 11.6941 9.99769 11.641C10.1262 11.5878 10.236 11.4978 10.3133 11.3822C10.3906 11.2666 10.4318 11.1307 10.4318 10.9917C10.432 10.8995 10.4141 10.8082 10.3789 10.7229C10.3438 10.6377 10.2922 10.5602 10.2271 10.4949C10.162 10.4297 10.0847 10.3779 9.9995 10.3426C9.91435 10.3072 9.82303 10.2891 9.73084 10.2891Z" fill="#5B6378"/>
<g clip-path="url(#clip1_1899_4986)">
<path d="M23.1513 9.33906C23.5372 9.33906 23.8504 9.64382 23.8504 10.0201V20.9005C23.8504 22.0485 22.9957 22.9505 21.7991 22.9505C16.9273 22.9505 16.0726 25.0004 16.0726 25.0004L16.047 24.9649C15.8419 24.6931 14.3786 22.9505 10.5171 22.9505C9.14955 22.9505 8.46578 22.0489 8.46578 20.9005V10.0205C8.46578 9.64382 8.77903 9.33906 9.16493 9.33906H23.1513ZM16.2491 12.7939C15.9081 12.6322 15.4953 12.7668 15.3269 13.0944L15.0354 13.6624C14.9323 13.8601 14.7826 14.0302 14.599 14.1584C14.4154 14.2866 14.2033 14.3691 13.9807 14.399L13.329 14.49C13.179 14.5111 13.0406 14.5788 12.9346 14.683C12.8717 14.7444 12.8219 14.8177 12.7883 14.8986C12.7548 14.9795 12.7381 15.0664 12.7393 15.1538C12.7405 15.2413 12.7596 15.3276 12.7953 15.4076C12.8311 15.4876 12.8828 15.5596 12.9474 15.6193L13.4188 16.0612C13.5805 16.2111 13.7021 16.3986 13.7724 16.6067C13.8428 16.8148 13.8597 17.0369 13.8218 17.2531L13.7107 17.877C13.685 18.021 13.7089 18.1683 13.7795 18.2974C13.9564 18.6208 14.373 18.7452 14.7094 18.575L15.2927 18.2804C15.4946 18.1788 15.7179 18.1258 15.9444 18.1258C16.1709 18.1258 16.3942 18.1788 16.5961 18.2804L17.1795 18.575C17.3132 18.6428 17.4666 18.666 17.6162 18.6415C17.991 18.5797 18.2427 18.2377 18.1782 17.877L18.0671 17.2531C18.0291 17.037 18.046 16.8148 18.1162 16.6068C18.1865 16.3987 18.308 16.2112 18.4696 16.0612L18.9414 15.6193C19.05 15.5177 19.1209 15.3843 19.1423 15.2404C19.197 14.8785 18.9363 14.5424 18.5598 14.49L17.9081 14.399C17.6855 14.3691 17.4734 14.2866 17.2898 14.1584C17.1062 14.0302 16.9565 13.8601 16.8534 13.6624L16.5619 13.0944C16.4939 12.9629 16.3839 12.8573 16.2491 12.7939ZM23.5833 7.22266C23.9666 7.22266 24.2778 7.5071 24.2778 7.85758C24.2778 8.20805 23.9666 8.4925 23.5833 8.4925H8.30553C7.9222 8.4925 7.61108 8.20805 7.61108 7.85758C7.61108 7.5071 7.9222 7.22266 8.30553 7.22266H23.5833Z" fill="white"/>
</g>
</g>
<defs>
<clipPath id="clip0_1899_4986">
<rect width="32" height="32" fill="white"/>
</clipPath>
<clipPath id="clip1_1899_4986">
<rect width="20" height="20" fill="white" transform="translate(6.5 5)"/>
</clipPath>
</defs>
</svg>
