<svg width="32" height="32" viewBox="0 0 32 32" fill="none" xmlns="http://www.w3.org/2000/svg">
<g clip-path="url(#clip0_1899_4975)">
<path d="M20.0062 0H11.9938C5.36981 0 0 5.36981 0 11.9938V20.0062C0 26.6302 5.36981 32 11.9938 32H20.0062C26.6302 32 32 26.6302 32 20.0062V11.9938C32 5.36981 26.6302 0 20.0062 0Z" fill="#26313B"/>
<path d="M20.0061 2.47461H11.9937C6.73606 2.47461 2.47388 6.73679 2.47388 11.9945V20.0068C2.47388 25.2645 6.73606 29.5267 11.9937 29.5267H20.0061C25.2638 29.5267 29.5259 25.2645 29.5259 20.0068V11.9945C29.5259 6.73679 25.2638 2.47461 20.0061 2.47461Z" fill="#2B3146"/>
<g style="mix-blend-mode:multiply" opacity="0.6">
<path d="M20.0061 26.721H11.9938C9.46894 26.721 7.04753 25.718 5.26221 23.9327C3.47689 22.1474 2.47388 19.726 2.47388 17.2012V20.005C2.47388 22.5298 3.47689 24.9512 5.26221 26.7366C7.04753 28.5219 9.46894 29.5249 11.9938 29.5249H20.0061C22.5309 29.5249 24.9523 28.5219 26.7376 26.7366C28.523 24.9512 29.5259 22.5298 29.5259 20.005V17.2012C29.5259 19.726 28.523 22.1474 26.7376 23.9327C24.9523 25.718 22.5309 26.721 20.0061 26.721Z" fill="#5B6378"/>
</g>
<path d="M20.0061 2.47461H11.9938C9.46894 2.47461 7.04753 3.47758 5.26221 5.2629C3.47689 7.04822 2.47388 9.46963 2.47388 11.9944V14.7983C2.47359 13.051 2.95437 11.3373 3.86351 9.84514C4.77266 8.35298 6.07507 7.13992 7.62798 6.33894C7.62798 6.35214 7.62798 6.36698 7.62798 6.38017C7.62554 6.73324 7.70412 7.08217 7.85762 7.40012C8.01113 7.71808 8.23549 7.99659 8.51348 8.21425C8.79148 8.43192 9.1157 8.58294 9.4612 8.65569C9.80669 8.72845 10.1643 8.72098 10.5064 8.63391C10.8486 8.54684 11.1662 8.38246 11.4349 8.15341C11.7036 7.92436 11.9162 7.63676 12.0564 7.31269C12.1965 6.98862 12.2604 6.63671 12.2433 6.28406C12.2261 5.9314 12.1283 5.58739 11.9574 5.27844H20.0077C22.5326 5.27844 24.954 6.28142 26.7393 8.06674C28.5246 9.85205 29.5276 12.2735 29.5276 14.7983V11.9944C29.5276 10.7441 29.2813 9.50608 28.8028 8.35098C28.3243 7.19587 27.6229 6.14634 26.7387 5.26232C25.8546 4.3783 24.8049 3.6771 23.6497 3.19878C22.4945 2.72046 21.2564 2.47439 20.0061 2.47461Z" fill="#5B6378"/>
<path d="M14.0772 11.6733C14.8848 11.4827 15.385 10.6734 15.1944 9.86581C15.0038 9.05817 14.1945 8.55799 13.3869 8.74861C12.5793 8.93923 12.0791 9.74846 12.2697 10.5561C12.4603 11.3637 13.2695 11.8639 14.0772 11.6733Z" fill="#5B6378"/>
<path d="M9.73084 10.2891C9.59181 10.2887 9.45581 10.3297 9.34005 10.4067C9.22429 10.4837 9.13401 10.5933 9.08058 10.7216C9.02715 10.85 9.01298 10.9913 9.03991 11.1277C9.06683 11.2641 9.13362 11.3895 9.23182 11.4879C9.33001 11.5863 9.45518 11.6534 9.59152 11.6807C9.72786 11.7079 9.86921 11.6941 9.99769 11.641C10.1262 11.5878 10.236 11.4978 10.3133 11.3822C10.3906 11.2666 10.4318 11.1307 10.4318 10.9917C10.432 10.8995 10.4141 10.8082 10.3789 10.7229C10.3438 10.6377 10.2922 10.5602 10.2271 10.4949C10.162 10.4297 10.0847 10.3779 9.9995 10.3426C9.91435 10.3072 9.82303 10.2891 9.73084 10.2891Z" fill="#5B6378"/>
<path d="M25.3943 19.2836C24.9363 19.7956 24.4023 20.2436 23.8093 20.6126L23.7923 20.6226L23.7903 20.6256C21.8983 21.8156 19.3173 22.4696 16.5233 22.4696C14.1373 22.4696 11.8213 21.9696 10.0053 21.0596C8.97828 20.5456 8.14528 19.9146 7.53328 19.2036C7.66728 20.4936 8.68228 21.7586 10.5403 22.6896C12.2583 23.5516 14.3983 23.9736 16.5233 23.9736C18.9773 23.9736 21.4153 23.4106 23.1693 22.2996H23.1733C24.5473 21.4296 25.2763 20.3646 25.3943 19.2846V19.2836ZM23.8093 17.9806L23.7923 17.9906L23.7903 17.9916C21.8983 19.1846 19.3173 19.8386 16.5233 19.8386C14.1373 19.8386 11.8213 19.3366 10.0053 18.4286C8.97828 17.9156 8.14528 17.2796 7.53228 16.5706C7.66628 17.8626 8.68128 19.1276 10.5373 20.0586C12.2573 20.9186 14.3973 21.3416 16.5223 21.3416C18.9763 21.3416 21.4133 20.7796 23.1673 19.6696L23.1723 19.6686C24.5473 18.7956 25.2743 17.7316 25.3933 16.6526C24.9319 17.1691 24.3984 17.6164 23.8093 17.9806ZM23.8093 15.3486L23.7923 15.3586H23.7903C21.8983 16.5526 19.3173 17.2086 16.5233 17.2086C14.1373 17.2086 11.8213 16.7056 10.0053 15.7986C8.97828 15.2846 8.14528 14.6506 7.53328 13.9426C7.66728 15.2336 8.68228 16.4956 10.5403 17.4256C12.2583 18.2856 14.3983 18.7106 16.5233 18.7106C18.9773 18.7106 21.4153 18.1456 23.1693 17.0376L23.1733 17.0346C24.5493 16.1646 25.2763 15.1006 25.3943 14.0186C24.9325 14.5356 24.3987 14.9836 23.8093 15.3486ZM7.52328 10.8496C7.43328 12.2966 8.45628 13.7596 10.5403 14.8036C14.2423 16.6576 19.8963 16.4836 23.1703 14.4146L23.1733 14.4126C24.6083 13.5046 25.3463 12.3846 25.4113 11.2546C25.4163 11.1846 25.4093 11.1146 25.4073 11.0446C25.4073 10.9566 25.4103 10.8656 25.4013 10.7776C25.2633 9.48958 24.2493 8.23158 22.3953 7.30258C20.6773 6.44258 18.5393 6.01758 16.4133 6.01758C16.2533 6.01758 16.0933 6.02758 15.9343 6.03258H15.9063C15.6303 6.04158 15.3563 6.05858 15.0823 6.07958L15.0483 6.08258C14.7763 6.10558 14.5063 6.13658 14.2363 6.17458L14.2033 6.17958C13.9343 6.21958 13.6683 6.26258 13.4063 6.31458L13.3863 6.31958C12.0353 6.59258 10.7833 7.04758 9.76228 7.69258L9.76028 7.69558C8.32728 8.59958 7.58828 9.72058 7.52328 10.8486V10.8496ZM22.2143 13.9256C19.4073 15.7006 14.5583 15.8506 11.3873 14.2616C8.21128 12.6716 7.91728 9.94658 10.7233 8.17458C13.5303 6.39958 18.3753 6.24958 21.5503 7.83958C24.7203 9.42658 25.0203 12.1526 22.2143 13.9256ZM11.0883 8.27958C8.46828 9.94158 8.74828 12.4836 11.7103 13.9736C14.6853 15.4536 19.2073 15.3166 21.8353 13.6606C24.4563 11.9976 24.1793 9.45458 21.2143 7.96658C18.2433 6.48258 13.7203 6.62358 11.0883 8.27958ZM13.5043 12.7546L13.0953 13.0126C12.9403 13.1106 12.8833 13.1106 12.7003 13.0186L12.4943 12.9166C12.3083 12.8226 12.3013 12.7906 12.4583 12.6936L12.8663 12.4346C12.5193 12.2606 11.2893 11.4046 11.5613 11.2336C11.5893 11.2156 11.5893 11.2156 11.6613 11.1916L12.7273 10.8576C12.7533 10.8506 12.8513 10.8366 12.8933 10.8566C12.9553 10.8896 13.2873 11.4576 13.8533 11.8116L15.6373 10.6846C15.2533 10.2146 14.3913 9.42158 15.5903 8.66158C16.9283 7.81658 18.6483 8.24558 19.1403 8.46958L19.5853 8.18858C19.7403 8.08958 19.7973 8.08858 19.9833 8.18058L20.1933 8.28458C20.3733 8.37458 20.3783 8.41058 20.2233 8.50658L19.7773 8.78858C20.0593 8.95058 21.1753 9.73558 20.8643 9.93358C20.823 9.95753 20.7775 9.97347 20.7303 9.98058L19.7943 10.2136C19.7293 10.2336 19.6713 10.2336 19.6283 10.2136C19.5673 10.1816 19.2663 9.61658 18.8213 9.39358L17.1383 10.4576C17.5163 10.9776 18.2583 11.7906 17.0923 12.5276C15.8283 13.3266 14.2873 13.0306 13.5053 12.7546H13.5043ZM15.8523 11.9696C16.3823 11.6376 16.1183 11.2886 15.9923 11.0996L14.4193 12.0956C14.7883 12.2006 15.3543 12.2856 15.8543 11.9696H15.8523ZM16.7723 10.0486L18.2563 9.11058C18.0043 9.03658 17.3813 8.86958 16.8463 9.20858C16.3523 9.51858 16.6363 9.87758 16.7723 10.0486Z" fill="white"/>
</g>
<defs>
<clipPath id="clip0_1899_4975">
<rect width="32" height="32" fill="white"/>
</clipPath>
</defs>
</svg>
