<svg width="32" height="32" viewBox="0 0 32 32" fill="none" xmlns="http://www.w3.org/2000/svg">
<g clip-path="url(#clip0_1899_4997)">
<path d="M20.0062 0H11.9938C5.36981 0 0 5.36981 0 11.9938V20.0062C0 26.6302 5.36981 32 11.9938 32H20.0062C26.6302 32 32 26.6302 32 20.0062V11.9938C32 5.36981 26.6302 0 20.0062 0Z" fill="#26313B"/>
<path d="M20.0061 2.47461H11.9937C6.73606 2.47461 2.47388 6.73679 2.47388 11.9945V20.0068C2.47388 25.2645 6.73606 29.5267 11.9937 29.5267H20.0061C25.2638 29.5267 29.5259 25.2645 29.5259 20.0068V11.9945C29.5259 6.73679 25.2638 2.47461 20.0061 2.47461Z" fill="#2B3146"/>
<g style="mix-blend-mode:multiply" opacity="0.6">
<path d="M20.0061 26.721H11.9938C9.46894 26.721 7.04753 25.718 5.26221 23.9327C3.47689 22.1474 2.47388 19.726 2.47388 17.2012V20.005C2.47388 22.5298 3.47689 24.9512 5.26221 26.7366C7.04753 28.5219 9.46894 29.5249 11.9938 29.5249H20.0061C22.5309 29.5249 24.9523 28.5219 26.7376 26.7366C28.523 24.9512 29.5259 22.5298 29.5259 20.005V17.2012C29.5259 19.726 28.523 22.1474 26.7376 23.9327C24.9523 25.718 22.5309 26.721 20.0061 26.721Z" fill="#5B6378"/>
</g>
<path d="M20.0061 2.47461H11.9938C9.46894 2.47461 7.04753 3.47758 5.26221 5.2629C3.47689 7.04822 2.47388 9.46963 2.47388 11.9944V14.7983C2.47359 13.051 2.95437 11.3373 3.86351 9.84514C4.77266 8.35298 6.07507 7.13992 7.62798 6.33894C7.62798 6.35214 7.62798 6.36698 7.62798 6.38017C7.62554 6.73324 7.70412 7.08217 7.85762 7.40012C8.01113 7.71808 8.23549 7.99659 8.51348 8.21425C8.79148 8.43192 9.1157 8.58294 9.4612 8.65569C9.80669 8.72845 10.1643 8.72098 10.5064 8.63391C10.8486 8.54684 11.1662 8.38246 11.4349 8.15341C11.7036 7.92436 11.9162 7.63676 12.0564 7.31269C12.1965 6.98862 12.2604 6.63671 12.2433 6.28406C12.2261 5.9314 12.1283 5.58739 11.9574 5.27844H20.0077C22.5326 5.27844 24.954 6.28142 26.7393 8.06674C28.5246 9.85205 29.5276 12.2735 29.5276 14.7983V11.9944C29.5276 10.7441 29.2813 9.50608 28.8028 8.35098C28.3243 7.19587 27.6229 6.14634 26.7387 5.26232C25.8546 4.3783 24.8049 3.6771 23.6497 3.19878C22.4945 2.72046 21.2564 2.47439 20.0061 2.47461Z" fill="#5B6378"/>
<path d="M14.0772 11.6733C14.8848 11.4827 15.385 10.6734 15.1944 9.86581C15.0038 9.05817 14.1945 8.55799 13.3869 8.74861C12.5793 8.93923 12.0791 9.74846 12.2697 10.5561C12.4603 11.3637 13.2695 11.8639 14.0772 11.6733Z" fill="#5B6378"/>
<path d="M9.73084 10.2891C9.59181 10.2887 9.45581 10.3297 9.34005 10.4067C9.22429 10.4837 9.13401 10.5933 9.08058 10.7216C9.02715 10.85 9.01298 10.9913 9.03991 11.1277C9.06683 11.2641 9.13362 11.3895 9.23182 11.4879C9.33001 11.5863 9.45518 11.6534 9.59152 11.6807C9.72786 11.7079 9.86921 11.6941 9.99769 11.641C10.1262 11.5878 10.236 11.4978 10.3133 11.3822C10.3906 11.2666 10.4318 11.1307 10.4318 10.9917C10.432 10.8995 10.4141 10.8082 10.3789 10.7229C10.3438 10.6377 10.2922 10.5602 10.2271 10.4949C10.162 10.4297 10.0847 10.3779 9.9995 10.3426C9.91435 10.3072 9.82303 10.2891 9.73084 10.2891Z" fill="#5B6378"/>
<path opacity="0.01" d="M7.61108 7.11133H25.3889V24.8891H7.61108V7.11133Z" fill="white"/>
<path d="M17.2991 8.16266C17.2154 8.08499 17.1088 8.0321 16.9928 8.01067C16.8767 7.98924 16.7564 8.00024 16.6471 8.04228C16.5378 8.08432 16.4444 8.15551 16.3787 8.24685C16.3129 8.33819 16.2778 8.44558 16.2778 8.55545V10.7777H11.4914C11.3327 10.7777 11.1805 10.8362 11.0683 10.9404C10.9561 11.0446 10.8931 11.1859 10.8931 11.3333V13.6667C10.8931 13.7396 10.9085 13.8119 10.9386 13.8793C10.9687 13.9467 11.0128 14.0079 11.0683 14.0595C11.1239 14.1111 11.1898 14.152 11.2624 14.1799C11.335 14.2078 11.4128 14.2222 11.4914 14.2222H23.4574C23.5757 14.2222 23.6913 14.1896 23.7897 14.1285C23.8881 14.0675 23.9647 13.9807 24.01 13.8792C24.0553 13.7777 24.0671 13.6661 24.0441 13.5583C24.021 13.4505 23.964 13.3516 23.8804 13.2739L17.2991 8.16266ZM17.4744 11.3333V9.89658L22.0131 13.1111H12.0897V11.8888H16.8761C16.9546 11.8888 17.0324 11.8745 17.105 11.8465C17.1776 11.8186 17.2436 11.7777 17.2991 11.7261C17.3547 11.6745 17.3988 11.6133 17.4288 11.5459C17.4589 11.4785 17.4744 11.4062 17.4744 11.3333ZM15.2565 22.3929C15.3402 22.4706 15.4467 22.5235 15.5628 22.5449C15.6788 22.5663 15.7991 22.5553 15.9084 22.5133C16.0177 22.4712 16.1112 22.4 16.1769 22.3087C16.2426 22.2174 16.2778 22.11 16.2778 22.0001V19.7779H21.0642C21.2229 19.7779 21.375 19.7193 21.4872 19.6151C21.5994 19.5109 21.6625 19.3696 21.6625 19.2223V16.8889C21.6625 16.8159 21.647 16.7437 21.6169 16.6763C21.5869 16.6089 21.5428 16.5477 21.4872 16.4961C21.4317 16.4445 21.3657 16.4036 21.2931 16.3756C21.2206 16.3477 21.1428 16.3333 21.0642 16.3333H9.09817C8.97986 16.3334 8.86421 16.366 8.76584 16.427C8.66748 16.4881 8.59081 16.5748 8.54554 16.6763C8.50026 16.7778 8.48841 16.8895 8.51149 16.9973C8.53456 17.105 8.59153 17.204 8.67517 17.2817L15.2565 22.3929ZM15.0812 19.2223V20.659L10.5425 17.4445H20.4659V18.6667H15.6795C15.6009 18.6667 15.5231 18.6811 15.4505 18.709C15.3779 18.7369 15.312 18.7779 15.2564 18.8294C15.2009 18.881 15.1568 18.9423 15.1267 19.0097C15.0967 19.0771 15.0812 19.1493 15.0812 19.2223Z" fill="white"/>
<path d="M17.4744 11.3333V9.89658L22.0131 13.1111H12.0897V11.8888H16.8761C16.9546 11.8888 17.0324 11.8745 17.105 11.8465C17.1776 11.8186 17.2436 11.7777 17.2991 11.7261C17.3547 11.6745 17.3988 11.6133 17.4288 11.5459C17.4589 11.4785 17.4744 11.4062 17.4744 11.3333Z" fill="white"/>
<path d="M15.0812 19.2223V20.659L10.5425 17.4445H20.4659V18.6667H15.6795C15.6009 18.6667 15.5231 18.6811 15.4505 18.709C15.3779 18.7369 15.312 18.7779 15.2564 18.8294C15.2009 18.881 15.1568 18.9423 15.1267 19.0097C15.0967 19.0771 15.0812 19.1493 15.0812 19.2223Z" fill="white"/>
</g>
<defs>
<clipPath id="clip0_1899_4997">
<rect width="32" height="32" fill="white"/>
</clipPath>
</defs>
</svg>
