<svg width="20" height="21" viewBox="0 0 20 21" fill="none" xmlns="http://www.w3.org/2000/svg">
<path d="M3.12971 4.65414C7.30002 3.91508 11.4672 3.15414 15.6375 2.41976C16.1297 2.30414 16.661 2.72289 16.6594 3.22914C16.6813 3.64945 16.6656 4.07132 16.6656 4.49164C12.7235 4.86039 8.78127 5.23382 4.83908 5.60101C4.31564 5.6557 3.78283 5.66195 3.27189 5.79945C3.50158 6.3682 4.11096 6.60101 4.68596 6.57289C8.69689 6.58383 12.7078 6.56195 16.7172 6.58226C17.5875 6.58539 18.3485 7.37133 18.3281 8.24164C18.336 11.3151 18.3422 14.3901 18.3235 17.462C18.3235 18.376 17.4625 19.1369 16.5594 19.0744C12.186 19.076 7.81252 19.076 3.43752 19.0744C2.47189 19.1463 1.59846 18.2744 1.66877 17.3088C1.66721 13.6604 1.66408 10.012 1.67033 6.36508C1.62814 5.52289 2.30783 4.76664 3.12971 4.65414ZM14.8797 11.7073C14.0828 12.0588 13.9219 13.2541 14.6328 13.7791C15.2953 14.401 16.4703 13.951 16.6328 13.0823C16.886 12.137 15.7422 11.2182 14.8797 11.7073Z" fill="white"/>
<path d="M3.12971 4.65414C7.30002 3.91508 11.4672 3.15414 15.6375 2.41976C16.1297 2.30414 16.661 2.72289 16.6594 3.22914C16.6813 3.64945 16.6656 4.07132 16.6656 4.49164C12.7235 4.86039 8.78127 5.23382 4.83908 5.60101C4.31564 5.6557 3.78283 5.66195 3.27189 5.79945C3.50158 6.3682 4.11096 6.60101 4.68596 6.57289C8.69689 6.58383 12.7078 6.56195 16.7172 6.58226C17.5875 6.58539 18.3485 7.37133 18.3281 8.24164C18.336 11.3151 18.3422 14.3901 18.3235 17.462C18.3235 18.376 17.4625 19.1369 16.5594 19.0744C12.186 19.076 7.81252 19.076 3.43752 19.0744C2.47189 19.1463 1.59846 18.2744 1.66877 17.3088C1.66721 13.6604 1.66408 10.012 1.67033 6.36508C1.62814 5.52289 2.30783 4.76664 3.12971 4.65414ZM14.8797 11.7073C14.0828 12.0588 13.9219 13.2541 14.6328 13.7791C15.2953 14.401 16.4703 13.951 16.6328 13.0823C16.886 12.137 15.7422 11.2182 14.8797 11.7073Z" fill="url(#paint0_linear_1876_8271)"/>
<defs>
<linearGradient id="paint0_linear_1876_8271" x1="1.66479" y1="10.7395" x2="18.3358" y2="10.7395" gradientUnits="userSpaceOnUse">
<stop stop-color="#1253FF"/>
<stop offset="1" stop-color="#299FFF"/>
</linearGradient>
</defs>
</svg>
