<svg id="Layer_39" viewBox="0 0 512 512" xmlns="http://www.w3.org/2000/svg" xmlns:xlink="http://www.w3.org/1999/xlink" data-name="Layer 39"><linearGradient id="linear-gradient" gradientUnits="userSpaceOnUse" x1="373.08" x2="138.92" y1="396.94" y2="162.78"><stop offset="0" stop-color="#fe7838"/><stop offset=".43" stop-color="#fe7636"/><stop offset=".97" stop-color="#ffad8a"/></linearGradient><path d="m496.52 129.86c-13.43-49.48-64.89-100.93-114.37-114.37-30.33-7.57-70.98-15.36-126.15-15.49-55.17.14-95.81 7.92-126.15 15.49-49.47 13.44-100.93 64.89-114.36 114.37-7.57 30.33-15.35 70.98-15.49 126.14.14 55.17 7.92 95.81 15.49 126.15 13.44 49.48 64.89 100.93 114.37 114.37 30.34 7.57 70.98 15.35 126.15 15.49 55.16-.14 95.81-7.92 126.15-15.49 49.48-13.44 100.93-64.89 114.37-114.37 7.57-30.33 15.35-70.98 15.49-126.15-.14-55.17-7.92-95.81-15.49-126.15z" fill="#fff1eb"/><path d="m256 376.37c25.32 13.59 50.28 26.87 74.68 39.5 17.6 9.15 39.51-7.69 37.06-28.02-3.54-28.09-7.66-56.31-12.19-84.66 21.12-20.38 42.24-40.5 63.02-60.04 15.14-14.14 6.13-38.91-14.85-42.45-28.87-4.74-57.69-9.42-86.44-13.93-13.16-26.21-26.3-52.54-39.07-78.83-9.3-19.15-35.11-19.15-44.41 0-12.77 26.29-25.91 52.62-39.07 78.83-28.75 4.51-57.57 9.2-86.44 13.93-20.98 3.54-29.99 28.31-14.85 42.45 20.77 19.54 41.89 39.67 63.02 60.04-4.53 28.35-8.65 56.57-12.19 84.66-2.46 20.32 19.46 37.16 37.06 28.02 24.41-12.63 49.36-25.91 74.68-39.5z" fill="url(#linear-gradient)"/></svg>