<svg width="20" height="20" viewBox="0 0 20 20" fill="none" xmlns="http://www.w3.org/2000/svg">
<g clip-path="url(#clip0_469_6088)">
<path d="M19.3676 10.1354C19.3676 15.2478 15.2313 19.393 10.1223 19.4085H10.0944C9.98312 19.4085 9.87182 19.4063 9.76162 19.4019C4.7939 19.2271 0.821289 15.1454 0.821289 10.1354C0.821289 5.01408 4.97311 0.862259 10.0944 0.862259C15.2158 0.862259 19.3676 5.01408 19.3676 10.1354Z" fill="#FFF4AB"/>
<path d="M10.5217 4.21052L11.9397 7.08398C12.0241 7.25479 12.1871 7.37324 12.3757 7.40059L15.5467 7.86148C16.0216 7.93048 16.2112 8.51402 15.8676 8.84889L13.5729 11.0855C13.4364 11.2185 13.3742 11.4102 13.4064 11.598L13.9482 14.7563C14.0293 15.2291 13.5329 15.5899 13.1082 15.3666L10.2719 13.8754C10.1033 13.7868 9.90173 13.7868 9.73313 13.8754L6.89679 15.3666C6.47208 15.5899 5.9757 15.2291 6.0568 14.7563L6.59856 11.598C6.63079 11.4102 6.56854 11.2185 6.43205 11.0855L4.13736 8.84889C3.79376 8.51402 3.98342 7.93048 4.45828 7.86148L7.62926 7.40059C7.81788 7.37324 7.98089 7.25479 8.06525 7.08398L9.48331 4.21052C9.69566 3.78023 10.3093 3.78023 10.5217 4.21052Z" fill="#F69F00"/>
<path d="M10.5217 4.21052L11.9397 7.08398C12.0241 7.25479 12.1871 7.37324 12.3757 7.40059L15.5467 7.86148C16.0216 7.93048 16.2112 8.51402 15.8676 8.84889L13.5729 11.0855C13.4364 11.2185 13.3742 11.4102 13.4064 11.598L13.9482 14.7563C14.0293 15.2291 13.5329 15.5899 13.1082 15.3666L10.2719 13.8754C10.1033 13.7868 9.90173 13.7868 9.73313 13.8754L6.89679 15.3666C6.47208 15.5899 5.9757 15.2291 6.0568 14.7563L6.59856 11.598C6.63079 11.4102 6.56854 11.2185 6.43205 11.0855L4.13736 8.84889C3.79376 8.51402 3.98342 7.93048 4.45828 7.86148L7.62926 7.40059C7.81788 7.37324 7.98089 7.25479 8.06525 7.08398L9.48331 4.21052C9.69566 3.78023 10.3093 3.78023 10.5217 4.21052Z" fill="#FFB200"/>
<path d="M10.334 5.61229L11.1078 7.15985" stroke="#FFDA68" stroke-width="0.5527" stroke-miterlimit="10" stroke-linecap="round"/>
</g>
<defs>
<clipPath id="clip0_469_6088">
<rect width="20" height="19" fill="white" transform="translate(0 0.660706)"/>
</clipPath>
</defs>
</svg>
