<svg id="Layer_1" enable-background="new 0 0 500 500" height="500" viewBox="0 0 500 500" width="500" xmlns="http://www.w3.org/2000/svg"><g><g><path d="m159.738 224.999s14.205 58.986-34.432 62.593c.001 0-28.365-42.822 34.432-62.593z" fill="#fed555"/><path d="m49.48 298.994s40.57-46.719 72.359-8.474c.001.001-18.757 48.907-72.359 8.474z" fill="#febe29"/><path d="m194.225 271.993s5.342 48.052-33.469 46.048c0 0-18.149-36.686 33.469-46.048z" fill="#febe29"/><path d="m86.539 360.236s23.139-58.87 66.832-32.874c0 0-1.375 53.531-66.832 32.874z" fill="#fed555"/><path d="m30.663 241.581s43.635-39.419 69.222.323c0 0-23.317 43.977-69.222-.323z" fill="#fed555"/><path d="m129.527 175.871s21.24 55.165-25.279 64.851c0 0-32.854-37.754 25.279-64.851z" fill="#febe29"/><path d="m15.062 165.979s53.779-22.365 64.519 23.206c0 0-36.321 33.341-64.519-23.206z" fill="#febe29"/><path d="m69.357 74.58s34.752 46.741-6.849 68.225c.001 0-41.162-27.141 6.849-68.225z" fill="#febe29"/><path d="m116.037 124.512s15.332 56.513-31.484 61.33c0 0-28.547-40.531 31.484-61.33z" fill="#fed555"/><path d="m336.486 224.999s-14.206 58.986 34.431 62.593c0 0 28.366-42.822-34.431-62.593z" fill="#fed555"/><path d="m446.742 298.994s-40.568-46.719-72.359-8.474c0 .001 18.758 48.907 72.359 8.474z" fill="#febe29"/><path d="m302.073 269.128s-5.542 49.845 34.716 47.766c0 0 18.827-38.054-34.716-47.766z" fill="#febe29"/><path d="m410.706 360.282s-23.078-58.894-66.798-32.942c0 0 1.321 53.532 66.798 32.942z" fill="#fed555"/><path d="m465.561 241.581s-43.635-39.419-69.223.323c0 0 23.318 43.977 69.223-.323z" fill="#fed555"/><path d="m366.697 175.871s-21.241 55.165 25.278 64.851c.001 0 32.855-37.754-25.278-64.851z" fill="#febe29"/><path d="m481.162 165.979s-53.779-22.365-64.52 23.206c.001 0 36.323 33.341 64.52-23.206z" fill="#febe29"/><path d="m426.867 74.58s-34.752 46.741 6.848 68.225c0 0 41.163-27.141-6.848-68.225z" fill="#febe29"/><path d="m380.187 124.512s-15.331 56.513 31.484 61.33c0 0 28.548-40.531-31.484-61.33z" fill="#fed555"/><path d="m302.761 426.32c-30.576-11.936-42.966-43.879-47.339-59.662.898-3.82 1.277-6.283 1.346-6.754.639-4.367-2.381-8.42-6.746-9.064-.984-.145-1.949-.096-2.867.104-.922-.205-1.895-.258-2.885-.113-4.371.64-7.397 4.701-6.758 9.074.068.471.447 2.934 1.346 6.754-4.373 15.783-16.763 47.727-47.339 59.662-4.116 1.605-6.149 6.245-4.543 10.361 1.233 3.16 4.255 5.092 7.454 5.092.968 0 1.951-.176 2.907-.549 26.477-10.336 41.489-31.924 49.803-50.271 8.313 18.348 23.326 39.936 49.803 50.271.956.373 1.939.549 2.907.549 3.199 0 6.221-1.933 7.454-5.092 1.606-4.117-.427-8.756-4.543-10.362z" fill="#fed555"/><path d="m270.839 400.262c-8.457-12.139-13.081-25.175-15.417-33.604.898-3.82 1.277-6.283 1.346-6.754.178-1.215.063-2.402-.275-3.503-4.922 2.638-8.155 4.679-8.54 4.924l-.818.521-.82-.522c-.384-.245-3.614-2.283-8.528-4.918-.338 1.099-.451 2.285-.273 3.498.068.471.447 2.934 1.346 6.754-2.348 8.472-7.01 21.597-15.548 33.786 11.992-8.312 20.298-13.119 23.815-18.558 3.496 5.416 11.766 10.115 23.712 18.376z" fill="#febe29"/><path d="m310.568 331.187c-3.437-1.349-7.367-2.032-11.684-2.032-21.717 0-49.75 17.704-50.933 18.458l-.818.521-.82-.522c-1.183-.754-29.216-18.459-50.933-18.459-4.316 0-8.247.681-11.684 2.029-14.961 5.871-21.258 24.662-18.7 39.443 2.626 15.185 13.651 24.9 28.772 25.375.447.015.897 0 1.342 0h.004c27.18 0 46.175-25.679 52.01-34.701 5.818 9.008 24.824 34.744 52.029 34.744.443 0 .895-.007 1.342-.021 15.121-.475 26.146-10.201 28.772-25.385 2.559-14.782-3.738-33.579-18.699-39.45zm-115.455 48.856c-.279 0-.562-.004-.842-.014-9.483-.297-12.58-6.755-13.509-12.121-1.586-9.17 2.517-19.369 8.78-21.827 1.565-.614 3.529-.927 5.838-.927 10.777 0 25.664 6.689 35.225 11.834-6.521 8.722-19.653 23.057-35.492 23.055zm118.39-12.135c-.929 5.366-4.025 11.824-13.509 12.121-16.373.51-29.777-14.15-36.363-23.024 9.562-5.148 24.466-11.851 35.254-11.851 2.309 0 4.272.312 5.838.927 6.263 2.458 10.366 12.657 8.78 21.827z" fill="#fed555"/><g clip-rule="evenodd" fill="#fff" fill-rule="evenodd"><path d="m392.389 342.795-2.783-8.463-2.782 8.463-8.463 2.783 8.463 2.781 2.782 8.464 2.783-8.464 8.463-2.781z"/><path d="m110.389 208.795-2.783-8.463-2.782 8.463-8.463 2.783 8.463 2.781 2.782 8.464 2.783-8.464 8.463-2.781z"/><path d="m67.389 91.795-2.783-8.463-2.782 8.463-8.463 2.783 8.463 2.781 2.782 8.464 2.783-8.464 8.463-2.781z"/><path d="m422.957 307.998 3.083-9.377 9.378-3.084-9.378-3.083-3.083-9.378-3.083 9.378-9.378 3.083 9.378 3.084z"/><path d="m434.957 120.998 3.083-9.377 9.378-3.084-9.378-3.083-3.083-9.378-3.083 9.378-9.378 3.083 9.378 3.084z"/><path d="m77.246 302.576 2.412-7.337 7.338-2.413-7.338-2.412-2.412-7.338-2.412 7.338-7.338 2.412 7.338 2.413z"/></g></g><g><g><g><path d="m175.15 125.138v-32.574c15.072-.672 25.625-1.679 31.653-3.022 9.602-2.125 17.42-6.38 23.448-12.761 4.131-4.365 7.257-10.184 9.38-17.463 1.229-4.363 1.841-7.61 1.841-9.738h39.962v243.462h-49.028v-167.904z" fill="#fda712"/></g></g><g><path d="m165.185 125.138v-32.574c15.072-.672 25.625-1.679 31.653-3.022 9.602-2.125 17.421-6.38 23.447-12.761 4.131-4.365 7.258-10.184 9.381-17.463 1.227-4.363 1.842-7.61 1.842-9.738h39.959v243.462h-49.027v-167.904z" fill="#fed555"/></g></g><path d="m223 247.611 48-49.814v-15.666l-48 49.82z" fill="#fff9a9" opacity=".4"/><path d="m223 207.834 48-49.832v-27.443l-48 49.837z" fill="#fff9a9" opacity=".4"/><g clip-rule="evenodd" fill="#fff" fill-rule="evenodd"><path d="m271.382 75.935-4.519-13.741-4.515 13.741-13.743 4.517 13.743 4.518 4.515 13.74 4.519-13.74 13.741-4.518z"/><path d="m237.587 119.921 2.847-8.66 8.66-2.847-8.66-2.848-2.847-8.659-2.848 8.659-8.659 2.848 8.659 2.847z"/></g></g></svg>