<svg id="Layer_1" enable-background="new 0 0 500 500" height="500" viewBox="0 0 500 500" width="500" xmlns="http://www.w3.org/2000/svg"><g><g><g><path d="m156.738 224.999s14.205 58.986-34.432 62.593c.001 0-28.365-42.822 34.432-62.593z" fill="#f48634"/><path d="m46.48 298.994s40.57-46.719 72.359-8.474c.001.001-18.757 48.907-72.359 8.474z" fill="#e27227"/><path d="m191.225 271.993s5.342 48.052-33.469 46.048c0 0-18.149-36.686 33.469-46.048z" fill="#e27227"/><path d="m83.539 360.236s23.139-58.87 66.832-32.874c0 0-1.375 53.531-66.832 32.874z" fill="#f48634"/><path d="m27.663 241.581s43.635-39.419 69.222.323c0 0-23.317 43.977-69.222-.323z" fill="#f48634"/><path d="m126.527 175.871s21.24 55.165-25.279 64.851c0 0-32.854-37.754 25.279-64.851z" fill="#e27227"/><path d="m12.062 165.979s53.779-22.365 64.519 23.206c0 0-36.321 33.341-64.519-23.206z" fill="#e27227"/><path d="m66.357 74.58s34.752 46.741-6.849 68.225c.001 0-41.162-27.141 6.849-68.225z" fill="#e27227"/><path d="m113.037 124.512s15.332 56.513-31.484 61.33c0 0-28.547-40.531 31.484-61.33z" fill="#f48634"/><path d="m333.486 224.999s-14.206 58.986 34.431 62.593c0 0 28.366-42.822-34.431-62.593z" fill="#f48634"/><path d="m443.742 298.994s-40.568-46.719-72.359-8.474c0 .001 18.758 48.907 72.359 8.474z" fill="#e27227"/><path d="m299.073 269.128s-5.542 49.845 34.716 47.766c0 0 18.827-38.054-34.716-47.766z" fill="#e27227"/><path d="m407.706 360.282s-23.078-58.894-66.798-32.942c0 0 1.321 53.532 66.798 32.942z" fill="#f48634"/><path d="m462.561 241.581s-43.635-39.419-69.223.323c0 0 23.318 43.977 69.223-.323z" fill="#f48634"/><path d="m363.697 175.871s-21.241 55.165 25.278 64.851c.001 0 32.855-37.754-25.278-64.851z" fill="#e27227"/><path d="m478.162 165.979s-53.779-22.365-64.52 23.206c.001 0 36.323 33.341 64.52-23.206z" fill="#e27227"/><path d="m423.867 74.58s-34.752 46.741 6.848 68.225c0 0 41.163-27.141-6.848-68.225z" fill="#e27227"/><path d="m377.187 124.512s-15.331 56.513 31.484 61.33c0 0 28.548-40.531-31.484-61.33z" fill="#f48634"/><path d="m299.761 426.32c-30.576-11.936-42.966-43.879-47.339-59.662.898-3.82 1.277-6.283 1.346-6.754.639-4.367-2.381-8.42-6.746-9.064-.984-.145-1.949-.096-2.867.104-.922-.205-1.895-.258-2.885-.113-4.371.64-7.397 4.701-6.758 9.074.068.471.447 2.934 1.346 6.754-4.373 15.783-16.763 47.727-47.339 59.662-4.116 1.605-6.149 6.245-4.543 10.361 1.233 3.16 4.255 5.092 7.454 5.092.968 0 1.951-.176 2.907-.549 26.477-10.336 41.489-31.924 49.803-50.271 8.313 18.348 23.326 39.936 49.803 50.271.956.373 1.939.549 2.907.549 3.199 0 6.221-1.933 7.454-5.092 1.606-4.117-.427-8.756-4.543-10.362z" fill="#f48634"/><path d="m267.839 400.262c-8.457-12.139-13.081-25.175-15.417-33.604.898-3.82 1.277-6.283 1.346-6.754.178-1.215.063-2.402-.275-3.503-4.922 2.638-8.155 4.679-8.54 4.924l-.818.521-.82-.522c-.384-.245-3.614-2.283-8.528-4.918-.338 1.099-.451 2.285-.273 3.498.068.471.447 2.934 1.346 6.754-2.348 8.472-7.01 21.597-15.548 33.786 11.992-8.312 20.298-13.119 23.815-18.558 3.496 5.416 11.766 10.115 23.712 18.376z" fill="#e27227"/><path d="m307.568 331.187c-3.437-1.349-7.367-2.032-11.684-2.032-21.717 0-49.75 17.704-50.933 18.458l-.818.521-.82-.522c-1.183-.754-29.216-18.459-50.933-18.459-4.316 0-8.247.681-11.684 2.029-14.961 5.871-21.258 24.662-18.7 39.443 2.626 15.185 13.651 24.9 28.772 25.375.447.015.897 0 1.342 0h.004c27.18 0 46.175-25.679 52.01-34.701 5.818 9.008 24.824 34.744 52.029 34.744.443 0 .895-.007 1.342-.021 15.121-.475 26.146-10.201 28.772-25.385 2.559-14.782-3.738-33.579-18.699-39.45zm-115.455 48.856c-.279 0-.562-.004-.842-.014-9.483-.297-12.58-6.755-13.509-12.121-1.586-9.17 2.517-19.369 8.78-21.827 1.565-.614 3.529-.927 5.838-.927 10.777 0 25.664 6.689 35.225 11.834-6.521 8.722-19.653 23.057-35.492 23.055zm118.39-12.135c-.929 5.366-4.025 11.824-13.509 12.121-16.373.51-29.777-14.15-36.363-23.024 9.562-5.148 24.466-11.851 35.254-11.851 2.309 0 4.272.312 5.838.927 6.263 2.458 10.366 12.657 8.78 21.827z" fill="#f48634"/><g clip-rule="evenodd" fill="#fff" fill-rule="evenodd"><path d="m389.389 342.795-2.783-8.463-2.782 8.463-8.463 2.783 8.463 2.781 2.782 8.464 2.783-8.464 8.463-2.781z"/><path d="m107.389 208.795-2.783-8.463-2.782 8.463-8.463 2.783 8.463 2.781 2.782 8.464 2.783-8.464 8.463-2.781z"/><path d="m64.389 91.795-2.783-8.463-2.782 8.463-8.463 2.783 8.463 2.781 2.782 8.464 2.783-8.464 8.463-2.781z"/><path d="m419.957 307.998 3.083-9.377 9.378-3.084-9.378-3.083-3.083-9.378-3.083 9.378-9.378 3.083 9.378 3.084z"/><path d="m431.957 120.998 3.083-9.377 9.378-3.084-9.378-3.083-3.083-9.378-3.083 9.378-9.378 3.083 9.378 3.084z"/><path d="m74.246 302.576 2.412-7.337 7.338-2.413-7.338-2.412-2.412-7.338-2.412 7.338-7.338 2.412 7.338 2.413z"/></g></g></g><g><path d="m223.458 195.618c0 8.021 1.288 14.661 3.864 19.917 4.782 9.683 13.475 14.523 26.079 14.523 7.729 0 14.467-2.649 20.216-7.953 5.749-5.302 8.625-12.933 8.625-22.892 0-13.186-5.331-21.992-15.994-26.419-6.069-2.489-15.628-3.734-28.682-3.734v-28.217c12.772-.184 21.686-1.429 26.74-3.734 8.729-3.873 13.095-11.709 13.095-23.514 0-7.653-2.23-13.877-6.69-18.673-4.461-4.794-10.739-7.192-18.831-7.192-9.289 0-16.118 2.952-20.486 8.852-4.37 5.902-6.462 13.787-6.276 23.652h-36.792c.367-9.959 2.072-19.409 5.111-28.354 3.225-7.837 8.29-15.077 15.199-21.716 5.157-4.703 11.282-8.299 18.375-10.789 7.093-2.489 15.799-3.734 26.116-3.734 19.159 0 34.611 4.958 46.355 14.869 11.744 9.913 17.616 23.216 17.616 39.904 0 11.805-3.506 21.764-10.512 29.877-4.427 5.072-9.038 8.53-13.832 10.373 3.596 0 8.76 3.091 15.491 9.268 10.05 9.315 15.077 22.04 15.077 38.176 0 16.968-5.874 31.882-17.618 44.746-11.746 12.863-29.134 19.295-52.163 19.295-28.372 0-48.087-9.268-59.14-27.802-5.805-9.866-9.029-22.775-9.674-38.729z" fill="#e27227"/></g><g><path d="m210.994 195.618c0 8.021 1.288 14.661 3.864 19.917 4.782 9.683 13.475 14.523 26.079 14.523 7.729 0 14.467-2.649 20.216-7.953 5.749-5.302 8.625-12.933 8.625-22.892 0-13.186-5.331-21.992-15.994-26.419-6.069-2.489-15.628-3.734-28.682-3.734v-28.217c12.772-.184 21.686-1.429 26.74-3.734 8.729-3.873 13.095-11.709 13.095-23.514 0-7.653-2.23-13.877-6.69-18.673-4.461-4.794-10.739-7.192-18.831-7.192-9.289 0-16.118 2.952-20.486 8.852-4.37 5.902-6.462 13.787-6.276 23.652h-36.792c.367-9.959 2.072-19.409 5.111-28.354 3.225-7.837 8.29-15.077 15.199-21.716 5.157-4.703 11.282-8.299 18.375-10.789 7.093-2.489 15.799-3.734 26.116-3.734 19.159 0 34.611 4.958 46.355 14.869 11.744 9.913 17.616 23.216 17.616 39.904 0 11.805-3.506 21.764-10.512 29.877-4.427 5.072-9.038 8.53-13.832 10.373 3.596 0 8.76 3.091 15.491 9.268 10.05 9.315 15.077 22.04 15.077 38.176 0 16.968-5.874 31.882-17.618 44.746-11.746 12.863-29.134 19.295-52.163 19.295-28.372 0-48.087-9.268-59.14-27.802-5.805-9.866-9.029-22.775-9.674-38.729z" fill="#f48634"/></g><g opacity=".4"><path d="m248.81 89.083c3.731 1.175 6.891 3.103 9.438 5.84.082.089.15.186.231.275l26.402-26.402c-3.024-2.313-6.278-4.321-9.76-6.024z" fill="#fff"/><g><path d="m288.753 72.053-27.283 27.283c.858 1.501 1.551 3.107 2.089 4.814l28.621-28.622c-1.076-1.197-2.213-2.358-3.427-3.475z" fill="#fff"/></g><g fill="#fff"><g><path d="m306.828 175.849c-1.495-3.633-3.402-6.986-5.73-10.054l-31.372 31.372c.03.673.053 1.351.053 2.047 0 7.574-1.669 13.798-4.994 18.679z"/><path d="m258.017 224.66c-5.022 3.597-10.714 5.398-17.079 5.398-1.356 0-2.658-.067-3.924-.18l-27.275 27.275c3.849 1.434 7.981 2.562 12.408 3.376z"/></g><path d="m309.936 186.771c-.333-1.938-.76-3.812-1.273-5.628l-80.291 80.291c2.069.235 4.188.418 6.37.532z"/></g></g><g clip-rule="evenodd" fill="#fff" fill-rule="evenodd"><path d="m303.103 94.214-3.24-9.849-3.236 9.849-9.851 3.238 9.851 3.238 3.236 9.849 3.24-9.849 9.848-3.238z"/><path d="m288.587 131.84 2.333-7.094 7.093-2.332-7.093-2.332-2.333-7.094-2.332 7.094-7.094 2.332 7.094 2.332z"/></g></g></svg>