<svg width="36" height="37" viewBox="0 0 36 37" fill="none" xmlns="http://www.w3.org/2000/svg">
<rect y="0.125" width="36" height="36" rx="12" fill="#BFB655" fill-opacity="0.3"/>
<path d="M21.2666 6.16316C21.2666 6.16316 22.7356 6.725 25.4356 9.42499C28.1257 12.1151 28.6898 13.5866 28.6939 13.5974C28.7595 14.8793 28.8001 16.3784 28.8001 18.125C28.8001 23.3363 28.438 26.3443 28.1332 27.9534C27.9373 28.987 27.1308 29.6955 26.0847 29.8084C24.6728 29.9607 22.1813 30.1249 18.0002 30.1249C13.8191 30.1249 11.3275 29.9607 9.91561 29.8084C8.86959 29.6955 8.06301 28.987 7.86716 27.9534C7.56229 26.3443 7.2002 23.3363 7.2002 18.125C7.2002 12.9137 7.56229 9.90565 7.86716 8.2966C8.06301 7.26291 8.86959 6.55442 9.91561 6.44155C11.3275 6.28919 13.8191 6.125 18.0002 6.125C19.23 6.125 20.3136 6.13923 21.2666 6.16316Z" fill="#FFF2A6"/>
<path d="M12 23.525C12 24.1877 12.5372 24.725 13.2 24.725H21.6C22.2627 24.725 22.8 24.1877 22.8 23.525C22.8 22.8622 22.2627 22.325 21.6 22.325H13.2C12.5372 22.325 12 22.8622 12 23.525Z" fill="#C2A500"/>
<path d="M12 18.125C12 18.7877 12.5372 19.325 13.2 19.325H18C18.6627 19.325 19.2 18.7877 19.2 18.125C19.2 17.4622 18.6627 16.925 18 16.925H13.2C12.5372 16.925 12 17.4622 12 18.125Z" fill="#C2A500"/>
<path d="M28.6937 13.5974C26.966 14.032 24.9261 14.0608 23.1642 13.5226C22.4193 13.295 21.8385 12.7147 21.5871 11.9776C20.9609 10.1411 20.8061 7.89334 21.2664 6.16315C21.2664 6.16315 22.7354 6.72499 25.4354 9.42498C28.1353 12.125 28.6937 13.5974 28.6937 13.5974Z" fill="#C2A500"/>
</svg>
