<svg width="36" height="37" viewBox="0 0 36 37" fill="none" xmlns="http://www.w3.org/2000/svg">
<rect y="0.25" width="36" height="36" rx="12" fill="#FF9A9A" fill-opacity="0.3"/>
<path d="M28.6333 7.36745C28.3379 7.07111 27.9173 6.94104 27.5027 7.02515C21.2676 8.27113 14.9495 10.5763 8.72421 13.8761C7.55936 14.4932 6.90309 15.6903 7.01165 17.0008C7.12021 18.2996 7.95644 19.3627 9.19465 19.7745L14.4673 21.5329L16.2248 26.8054C16.6376 28.0435 17.7007 28.8807 19.0005 28.9882C19.0944 28.9961 19.1883 29 19.2812 29C20.4793 29 21.5522 28.3564 22.1244 27.2758C25.4243 21.0508 27.7296 14.7328 28.9756 8.49802C29.0578 8.08726 28.9296 7.6628 28.6333 7.36745Z" fill="#F784A5"/>
<path d="M17.1905 20C16.8854 20 16.5813 19.8838 16.3488 19.6512C15.8837 19.1862 15.8837 18.4329 16.3488 17.9678L23.9678 10.3488C24.4329 9.88374 25.1862 9.88374 25.6512 10.3488C26.1163 10.8138 26.1163 11.5671 25.6512 12.0322L18.0322 19.6512C17.7997 19.8838 17.4955 20 17.1905 20Z" fill="#8A0608"/>
</svg>
