<svg width="36" height="38" viewBox="0 0 36 38" fill="none" xmlns="http://www.w3.org/2000/svg">
<rect y="0.25" width="36" height="37.125" rx="12" fill="#FFDD94" fill-opacity="0.3"/>
<path fill-rule="evenodd" clip-rule="evenodd" d="M24.992 12.2605C25.3448 12.9883 25.0588 13.8732 24.353 14.2371L15.857 18.8123L24.353 23.3874C25.0588 23.7513 25.3448 24.6362 24.992 25.3639C24.6391 26.0917 23.781 26.3866 23.0753 26.0228L11.1706 20.13C10.6866 19.8804 10.3809 19.3703 10.3809 18.8123C10.3809 18.2543 10.6866 17.7441 11.1706 17.4946L23.0753 11.6017C23.781 11.2378 24.6391 11.5328 24.992 12.2605Z" fill="#FFE865"/>
<path d="M16.5714 18.8125C16.5714 21.2534 14.6527 23.2321 12.2857 23.2321C9.91878 23.2321 8 21.2534 8 18.8125C8 16.3715 9.91878 14.3928 12.2857 14.3928C14.6527 14.3928 16.5714 16.3715 16.5714 18.8125Z" fill="#FFBD07"/>
<path d="M28.0001 12.9196C28.0001 15.3606 26.0814 17.3393 23.7144 17.3393C21.3475 17.3393 19.4287 15.3606 19.4287 12.9196C19.4287 10.4787 21.3475 8.5 23.7144 8.5C26.0814 8.5 28.0001 10.4787 28.0001 12.9196Z" fill="#FFBD07"/>
<path d="M28.0001 24.7054C28.0001 27.1463 26.0814 29.125 23.7144 29.125C21.3475 29.125 19.4287 27.1463 19.4287 24.7054C19.4287 22.2645 21.3475 20.2858 23.7144 20.2858C26.0814 20.2858 28.0001 22.2645 28.0001 24.7054Z" fill="#FFBD07"/>
</svg>
