<svg width="36" height="37" viewBox="0 0 36 37" fill="none" xmlns="http://www.w3.org/2000/svg">
<rect y="0.375" width="36" height="36" rx="12" fill="#F3B5FF" fill-opacity="0.3"/>
<path fill-rule="evenodd" clip-rule="evenodd" d="M27.8154 22.0119C28.2937 22.0119 28.6815 22.3997 28.6815 22.878C28.6815 27.5017 24.9332 31.25 20.3094 31.25C19.8311 31.25 19.4434 30.8622 19.4434 30.3839C19.4434 29.9056 19.8311 29.5179 20.3094 29.5179C23.9766 29.5179 26.9493 26.5451 26.9493 22.878C26.9493 22.3997 27.3371 22.0119 27.8154 22.0119Z" fill="#FF6BFD"/>
<path fill-rule="evenodd" clip-rule="evenodd" d="M17.4015 10.4643C14.2762 10.4643 11.6155 12.7379 11.128 15.8249L10.4731 19.9725C10.3239 20.9175 9.43696 21.5625 8.49203 21.4133C7.5471 21.2641 6.90203 20.3772 7.05123 19.4322L7.70612 15.2846C8.45941 10.5138 12.5715 7 17.4015 7H18.5991C23.429 7 27.5411 10.5138 28.2944 15.2846L28.9493 19.4322C29.0985 20.3772 28.4534 21.2641 27.5085 21.4133C26.5636 21.5625 25.6767 20.9175 25.5274 19.9725L24.8725 15.8249C24.3851 12.7379 21.7243 10.4643 18.5991 10.4643H17.4015Z" fill="#FF6BFD"/>
<path d="M8.15833 25.0866C7.54665 24.967 7.01481 24.5958 6.83838 23.998C6.64716 23.3501 6.45215 22.3286 6.45215 20.8571C6.45215 19.3856 6.64716 18.3641 6.83838 17.7162C7.01481 17.1184 7.54665 16.7472 8.15833 16.6276C9.07807 16.4477 10.5659 16.1588 12.193 15.8513C12.8383 15.7294 13.4449 15.9645 13.6019 16.6021C13.783 17.3377 13.9581 18.6259 13.9581 20.8571C13.9581 23.0883 13.783 24.3765 13.6019 25.112C13.4449 25.7497 12.8383 25.9848 12.193 25.8629C10.5659 25.5554 9.07806 25.2665 8.15833 25.0866Z" fill="#FFC4FB"/>
<path d="M11.2336 25.6807C11.156 24.8445 11.0713 23.359 11.0713 20.8571C11.0713 18.3552 11.156 16.8696 11.2336 16.0335C11.5455 15.974 11.8665 15.913 12.1931 15.8513C12.8384 15.7294 13.445 15.9645 13.602 16.6021C13.7831 17.3377 13.9582 18.6259 13.9582 20.8571C13.9582 23.0883 13.7831 24.3765 13.602 25.112C13.445 25.7496 12.8384 25.9848 12.1931 25.8629C11.8665 25.8012 11.5455 25.7402 11.2336 25.6807Z" fill="#FF6BFD"/>
<path d="M27.8413 16.6277C28.453 16.7474 28.9848 17.1186 29.1612 17.7163C29.3524 18.3643 29.5475 19.3857 29.5475 20.8572C29.5475 22.3287 29.3524 23.3502 29.1612 23.9981C28.9848 24.5959 28.453 24.9671 27.8413 25.0867C26.9215 25.2666 25.4337 25.5555 23.8066 25.863C23.1613 25.9849 22.5547 25.7498 22.3977 25.1122C22.2166 24.3766 22.0415 23.0885 22.0415 20.8572C22.0415 18.626 22.2166 17.3379 22.3977 16.6023C22.5547 15.9647 23.1613 15.7295 23.8066 15.8514C25.4337 16.1589 26.9215 16.4478 27.8413 16.6277Z" fill="#FFC4FB"/>
<path d="M24.766 16.0335C24.8437 16.8696 24.9284 18.3552 24.9284 20.8571C24.9284 23.359 24.8437 24.8445 24.766 25.6807C24.4541 25.7402 24.1332 25.8012 23.8066 25.8629C23.1613 25.9848 22.5547 25.7496 22.3977 25.112C22.2166 24.3765 22.0415 23.0883 22.0415 20.8571C22.0415 18.6259 22.2166 17.3377 22.3977 16.6021C22.5547 15.9645 23.1613 15.7294 23.8066 15.8513C24.1332 15.913 24.4541 15.974 24.766 16.0335Z" fill="#FF6BFD"/>
</svg>
