<svg width="50" height="51" viewBox="0 0 50 51" fill="none" xmlns="http://www.w3.org/2000/svg">
<path d="M15.662 9.20064C18.1576 8.64052 20.8916 9.27088 22.8899 10.8699C24.3873 12.1047 25.5112 13.822 25.9253 15.7279C26.393 17.7521 26.1268 19.9519 25.1101 21.7727C24.2043 23.5104 22.6237 24.8339 20.8584 25.6418C18.6087 26.5642 15.9763 26.5272 13.7728 25.4846C11.9982 24.5659 10.4251 23.1444 9.61724 21.2847C8.62456 19.1459 8.56356 16.5875 9.46196 14.4043C10.5249 11.8071 12.8726 9.71823 15.662 9.20064ZM16.4015 13.8073C16.2536 14.7001 16.3793 15.617 16.3368 16.5191C15.5474 16.5376 14.7581 16.4914 13.9706 16.5376C13.5861 16.5616 13.1979 16.7409 13.0186 17.0996C12.6175 17.7447 13.0519 18.7485 13.8394 18.7984C14.6694 18.8797 15.5049 18.8076 16.3368 18.8335C16.3793 19.7375 16.248 20.6599 16.4107 21.5527C16.7028 22.5399 18.311 22.5048 18.5809 21.5213C18.7325 20.6359 18.6087 19.7264 18.6493 18.8335C19.544 18.7891 20.4554 18.9241 21.3408 18.754C22.352 18.5008 22.3409 16.8537 21.339 16.5967C20.4554 16.4304 19.544 16.5616 18.6493 16.5191C18.605 15.6244 18.7399 14.7131 18.5735 13.8294C18.3036 12.8331 16.6972 12.8257 16.4015 13.8073Z" fill="url(#paint0_linear_463_1947)"/>
<path d="M26.4263 11.3006C28.2379 11.3025 30.0495 11.2877 31.8611 11.3062C33.131 11.3062 34.3973 11.9975 34.9759 13.1455C35.4436 13.9903 35.4158 14.983 35.4011 15.9183C33.0404 15.9202 30.6798 15.9202 28.3174 15.9183C28.0364 14.2639 27.382 12.6796 26.4263 11.3006Z" fill="url(#paint1_linear_463_1947)"/>
<path d="M28.471 18.2327C32.6377 18.2272 36.8043 18.2327 40.971 18.2309C41.3648 19.7374 41.1041 21.3143 41.1781 22.8523C38.0762 22.8634 34.9761 22.8319 31.8761 22.8671C30.1384 22.8763 28.5431 24.3367 28.4877 26.0928C28.4488 27.69 28.4747 29.2908 28.4747 30.8898C28.4673 31.9971 28.9942 33.11 29.9147 33.744C30.6227 34.2727 31.5322 34.415 32.3955 34.4095C35.3236 34.4021 38.2499 34.4058 41.1781 34.4058C41.1559 35.6979 41.2298 36.9938 41.1374 38.2841C40.9766 40.0365 39.311 41.3915 37.5752 41.3342C29.9961 41.3435 22.417 41.3361 14.8379 41.3379C13.7028 41.3545 12.5364 40.8998 11.8506 39.97C11.3626 39.3322 11.1333 38.5299 11.1407 37.7332C11.1352 34.0213 11.1407 30.3112 11.1389 26.6012C13.2333 28.0615 15.8176 28.8379 18.3723 28.642C20.134 28.3702 21.9234 27.921 23.4244 26.9173C26.3692 25.0484 28.3028 21.7172 28.471 18.2327Z" fill="url(#paint2_linear_463_1947)"/>
<path d="M30.7871 26.2703C30.7667 25.6214 31.3823 25.1279 32.0071 25.1704C35.0628 25.1537 38.1185 25.1667 41.1742 25.163C41.1779 27.4737 41.176 29.7826 41.176 32.0933C38.1277 32.1007 35.0776 32.0914 32.0293 32.0988C31.3638 32.1598 30.7279 31.5775 30.7834 30.8991C30.7778 29.3555 30.7704 27.812 30.7871 26.2703ZM33.7263 27.5957C32.8094 27.9617 32.9222 29.5145 33.8964 29.7197C34.5729 29.814 35.2994 29.8676 35.9557 29.6421C36.769 29.2539 36.7228 27.9229 35.891 27.5846C35.1904 27.4145 34.4232 27.4072 33.7263 27.5957Z" fill="url(#paint3_linear_463_1947)"/>
<defs>
<linearGradient id="paint0_linear_463_1947" x1="17.4882" y1="9" x2="17.4882" y2="26.3019" gradientUnits="userSpaceOnUse">
<stop stop-color="#FFD500"/>
<stop offset="1" stop-color="#FF9D00"/>
</linearGradient>
<linearGradient id="paint1_linear_463_1947" x1="30.9168" y1="11.2968" x2="30.9168" y2="15.9197" gradientUnits="userSpaceOnUse">
<stop stop-color="#FFD500"/>
<stop offset="1" stop-color="#FF9D00"/>
</linearGradient>
<linearGradient id="paint2_linear_463_1947" x1="26.1667" y1="18.2302" x2="26.1667" y2="41.339" gradientUnits="userSpaceOnUse">
<stop stop-color="#FFD500"/>
<stop offset="1" stop-color="#FF9D00"/>
</linearGradient>
<linearGradient id="paint3_linear_463_1947" x1="35.9767" y1="25.1617" x2="35.9767" y2="32.1032" gradientUnits="userSpaceOnUse">
<stop stop-color="#FFD500"/>
<stop offset="1" stop-color="#FF9D00"/>
</linearGradient>
</defs>
</svg>
