<svg width="36" height="36" viewBox="0 0 36 36" fill="none" xmlns="http://www.w3.org/2000/svg">
<rect y="0.375" width="36" height="34.9091" rx="12" fill="#CFFFB6" fill-opacity="0.3"/>
<path d="M13.6467 6.45207C13.6467 6.45207 12.2058 6.98645 9.55751 9.55453C6.91888 12.1132 6.36555 13.5128 6.36153 13.5231C6.29722 14.7423 6.25732 16.1682 6.25732 17.8294C6.25732 22.7861 6.6125 25.6471 6.91153 27.1776C7.10363 28.1608 7.89477 28.8346 8.92076 28.942C10.3057 29.0869 12.7495 29.2431 16.8506 29.2431C20.9517 29.2431 23.3956 29.0869 24.7805 28.942C25.8065 28.8346 26.5976 28.1608 26.7897 27.1776C27.0887 25.6471 27.4439 22.7861 27.4439 17.8294C27.4439 12.8728 27.0887 10.0117 26.7897 8.48127C26.5976 7.49809 25.8065 6.82421 24.7805 6.71685C23.3956 6.57194 20.9517 6.41577 16.8506 6.41577C15.6443 6.41577 14.5814 6.4293 13.6467 6.45207Z" fill="#ADFFA6"/>
<path d="M6.36182 13.523C8.05648 13.9364 10.0573 13.9638 11.7855 13.4519C12.5161 13.2354 13.0858 12.6835 13.3324 11.9824C13.9467 10.2357 14.0985 8.09768 13.647 6.45203C13.647 6.45203 12.2062 6.98641 9.55782 9.55448C6.9095 12.1226 6.36182 13.523 6.36182 13.523Z" fill="#00C01D"/>
<path d="M29.3104 18.1468C30.2297 17.2553 30.2297 15.81 29.3104 14.9185L27.5034 13.1663C26.5841 12.2748 25.0935 12.2748 24.1742 13.1663L17.5401 19.5994C17.0986 20.0275 16.8506 20.6081 16.8506 21.2135V24.1072C16.8506 24.7375 17.3775 25.2485 18.0276 25.2485H21.0116C21.636 25.2485 22.2347 25.008 22.6762 24.5799L29.3104 18.1468Z" fill="#00C01D"/>
</svg>
