<svg width="36" height="38" viewBox="0 0 36 38" fill="none" xmlns="http://www.w3.org/2000/svg">
<rect y="0.0982056" width="36" height="37.125" rx="12" fill="#FFD3D3" fill-opacity="0.3"/>
<path d="M27.185 12.4C27.185 14.3021 25.975 15.9177 24.314 16.4448C24.501 15.8146 24.6 15.1386 24.6 14.4511C24.6 11.9417 23.302 9.74181 21.377 8.55014C21.905 8.29806 22.488 8.14899 23.115 8.14899C25.359 8.14899 27.185 10.051 27.185 12.4ZM26.36 17.6595C25.898 17.522 25.392 17.5906 24.985 17.8312C24.501 18.1062 23.984 18.2668 23.456 18.3012C23.236 18.6449 22.983 18.9771 22.686 19.275C24.809 19.9969 26.36 21.9104 26.712 24.1907H27.471C27.977 24.1907 28.439 23.9158 28.67 23.4689C28.89 23.045 29 22.5635 29 22.0822V21.2687C29 19.5614 27.911 18.0834 26.36 17.6595ZM14.623 8.55014C14.095 8.29806 13.512 8.14899 12.885 8.14899C10.641 8.14899 8.81503 10.051 8.81503 12.4C8.81503 14.3021 10.025 15.9177 11.686 16.4448C11.499 15.8146 11.4 15.1386 11.4 14.4511C11.4 11.9417 12.698 9.74181 14.623 8.55014ZM13.314 19.275C13.017 18.9771 12.764 18.6449 12.544 18.3012C12.016 18.2668 11.499 18.1062 11.015 17.8312C10.608 17.5906 10.102 17.522 9.64003 17.6595C8.08903 18.0834 7 19.5614 7 21.2687V22.0822C7 22.5635 7.10999 23.045 7.32999 23.4689C7.56099 23.9158 8.02301 24.1907 8.51801 24.1907H9.28802C9.64002 21.9104 11.191 19.9969 13.314 19.275ZM21.938 20.8334C21.751 20.7876 21.553 20.7532 21.355 20.7532C20.981 20.7532 20.596 20.8563 20.266 21.0511C19.562 21.4521 18.781 21.6584 18 21.6584C17.219 21.6584 16.438 21.4521 15.734 21.0511C15.404 20.8563 15.019 20.7532 14.645 20.7532C14.447 20.7532 14.249 20.7876 14.062 20.8334C12.17 21.3605 10.85 23.1593 10.85 25.2218V26.2188C10.85 26.8032 10.993 27.3875 11.257 27.8917C11.532 28.4417 12.082 28.774 12.698 28.774H23.302C23.918 28.774 24.468 28.4417 24.743 27.8917C25.007 27.3875 25.15 26.8032 25.15 26.2188V25.2218C25.15 23.1593 23.83 21.3605 21.938 20.8334ZM22.95 14.4511C22.95 11.6037 20.7335 9.29482 18 9.29482C15.2665 9.29482 13.05 11.6037 13.05 14.4511C13.05 17.2985 15.2665 19.6073 18 19.6073C20.7335 19.6073 22.95 17.2985 22.95 14.4511Z" fill="#FFC49A"/>
<path d="M21.9381 20.8334C21.7511 20.7876 21.5531 20.7531 21.3551 20.7531C20.9811 20.7531 20.5961 20.8563 20.2661 21.0511C19.5621 21.4521 18.7811 21.6584 18.0001 21.6584C17.2191 21.6584 16.4381 21.4521 15.7341 21.0511C15.4041 20.8563 15.0191 20.7531 14.6451 20.7531C14.4471 20.7531 14.2491 20.7876 14.0621 20.8334C12.1701 21.3605 10.8501 23.1593 10.8501 25.2218V26.2188C10.8501 26.8032 10.9931 27.3875 11.2571 27.8917C11.5321 28.4417 12.0821 28.774 12.6981 28.774H23.3021C23.9181 28.774 24.4681 28.4417 24.7431 27.8917C25.0071 27.3875 25.1501 26.8032 25.1501 26.2188V25.2218C25.1501 23.1593 23.8301 21.3605 21.9381 20.8334ZM22.9501 14.4511C22.9501 11.6037 20.7336 9.2948 18.0001 9.2948C15.2666 9.2948 13.0501 11.6037 13.0501 14.4511C13.0501 17.2984 15.2666 19.6073 18.0001 19.6073C20.7336 19.6073 22.9501 17.2984 22.9501 14.4511Z" fill="#F66618"/>
</svg>
