<svg width="50" height="51" viewBox="0 0 50 51" fill="none" xmlns="http://www.w3.org/2000/svg">
<path fill-rule="evenodd" clip-rule="evenodd" d="M5.9985 21.1947C5.99464 17.7578 5.99464 13.2393 5.9985 9.8024H43.9999V21.1947C40.8214 21.1986 39.8097 21.1986 36.6312 21.1947C36.635 20.6354 36.635 20.0761 36.6312 19.5206C36.8453 19.5167 37.6011 19.5129 38.3569 19.509C39.1127 19.5052 39.8684 19.5013 40.0825 19.4975C40.0809 18.5143 40.0813 17.3347 40.0818 16.1258C40.0824 14.4983 40.0831 12.8177 40.0786 11.4919C31.4651 11.4881 18.5295 11.4881 9.91973 11.4919C9.91341 12.7543 9.914 14.3384 9.91457 15.892C9.91505 17.182 9.91552 18.451 9.91202 19.4975C10.128 19.5013 10.8848 19.5061 11.6415 19.511C12.3983 19.5158 13.155 19.5206 13.3711 19.5245C13.3659 19.8971 13.3642 20.2679 13.3625 20.6383C13.3616 20.8238 13.3608 21.0093 13.3595 21.1947C10.1848 21.1986 9.17314 21.1986 5.9985 21.1947ZM12.6227 18.969C12.6111 17.0171 12.615 15.0614 12.6189 13.1057C20.8737 13.1019 29.1247 13.1019 37.3757 13.1057L37.3757 13.1086C37.3795 15.0634 37.3834 17.0142 37.3757 18.969H36.635C36.637 18.4367 36.635 17.9044 36.6331 17.3721C36.6312 16.8398 36.6293 16.3074 36.6312 15.7751C28.8778 15.7712 21.1206 15.7712 13.3672 15.7751C13.3672 16.1741 13.3656 16.5731 13.3639 16.9723C13.3612 17.6383 13.3585 18.3048 13.3633 18.9728C13.1782 18.969 12.8079 18.969 12.6227 18.969ZM13.8995 41.5927V16.3074C17.5988 16.3093 21.298 16.3093 24.9973 16.3093C28.6965 16.3093 32.3958 16.3093 36.095 16.3112C36.095 19.4882 36.0955 22.3762 36.0959 25.174C36.0968 30.5156 36.0975 35.5286 36.095 41.5965H36.0731C28.6819 41.5965 21.2907 41.5965 13.8995 41.5927ZM22.8292 25.5883C21.9342 25.2411 21.0278 24.9133 20.0981 24.678C19.5889 25.5073 19.2109 26.4099 18.9988 27.3627C18.6179 27.3679 18.2388 27.3696 17.8592 27.3713C17.6697 27.3721 17.48 27.373 17.2899 27.3743V27.3756C17.2899 28.2508 17.2899 29.126 17.2938 30.005C17.911 30.0012 18.5282 30.0012 19.1453 30.0089C19.8474 32.2578 22.7019 33.4805 24.7077 32.0842C25.5577 31.5892 25.9447 30.7347 26.3298 29.8842C26.677 29.1175 27.0228 28.3541 27.7049 27.8603C29.0768 28.6208 28.0961 30.3684 27.5169 31.4006C27.4967 31.4365 27.4771 31.4715 27.458 31.5056C28.3144 31.8296 29.1707 32.1536 30.0232 32.4892C30.5131 31.7756 30.7986 30.9655 31.0107 30.1362C31.5777 30.1246 32.1409 30.1092 32.708 30.0899C32.7041 29.2143 32.7041 28.3425 32.7041 27.4669C32.5052 27.4656 32.3062 27.4647 32.1074 27.4639C31.7087 27.4621 31.3106 27.4604 30.9143 27.4553C30.2778 25.5883 28.1292 24.3385 26.2391 25.1833C25.0182 25.6896 24.4764 26.8442 23.9449 27.9768C23.7475 28.3973 23.5516 28.8148 23.3229 29.195C22.9796 29.8584 21.915 29.7389 21.7722 28.9828C21.4405 27.7407 22.1618 26.5758 22.8292 25.5883Z" fill="url(#paint0_linear_463_1957)"/>
<defs>
<linearGradient id="paint0_linear_463_1957" x1="24.9977" y1="10.8839" x2="24.9977" y2="44.046" gradientUnits="userSpaceOnUse">
<stop stop-color="#54ACFF"/>
<stop offset="1" stop-color="#0F3FFF"/>
</linearGradient>
</defs>
</svg>
