<svg width="36" height="36" viewBox="0 0 36 36" fill="none" xmlns="http://www.w3.org/2000/svg">
<rect y="0.284058" width="36" height="34.9091" rx="12" fill="white" fill-opacity="0.3"/>
<path d="M17.9999 24.8372C12.6356 24.8372 8.28698 20.6204 8.28698 15.4186C8.28698 10.2169 12.6356 6 17.9999 6C23.3643 6 27.7129 10.2169 27.7129 15.4186C27.7129 20.6204 23.3643 24.8372 17.9999 24.8372Z" fill="#A6CFFF"/>
<path d="M13.2755 23.1145C12.7865 23.1273 12.2713 23.2572 12.0839 23.6953C11.9953 23.9022 11.9292 24.1787 11.9292 24.5429C11.9292 24.9071 11.9953 25.1835 12.0839 25.3904C12.1432 25.5293 12.2356 25.6372 12.3496 25.7202C12.2356 25.8032 12.1432 25.9111 12.0839 26.05C11.9953 26.2569 11.9292 26.5333 11.9292 26.8975C11.9292 27.2618 11.9953 27.5382 12.0839 27.7451C12.2713 28.1832 12.7865 28.3131 13.2755 28.3259C13.5417 28.3329 13.8922 28.3404 14.346 28.3471L14.7124 29.0577C14.8723 29.3677 15.1646 29.5936 15.5173 29.6498C16.0488 29.7347 16.9282 29.8409 17.9998 29.8409C19.0714 29.8409 19.9508 29.7347 20.4822 29.6498C20.8349 29.5936 21.1273 29.3677 21.2871 29.0577L21.6536 28.3471C22.1073 28.3404 22.4579 28.3329 22.7241 28.3259C23.213 28.3131 23.7283 28.1832 23.9157 27.7451C24.0043 27.5382 24.0704 27.2618 24.0704 26.8975C24.0704 26.5333 24.0043 26.2569 23.9157 26.05C23.8563 25.9111 23.764 25.8032 23.65 25.7202C23.764 25.6372 23.8563 25.5293 23.9157 25.3904C24.0043 25.1835 24.0704 24.9071 24.0704 24.5429C24.0704 24.1787 24.0043 23.9022 23.9157 23.6953C23.7283 23.2572 23.213 23.1273 22.7241 23.1145C21.9697 23.0947 20.5391 23.0712 17.9998 23.0712C15.4605 23.0712 14.0299 23.0947 13.2755 23.1145Z" fill="#1575E5"/>
<path fill-rule="evenodd" clip-rule="evenodd" d="M17.9998 10.7093C20.6819 10.7093 22.8562 12.8177 22.8562 15.4186C22.8562 16.0688 23.3998 16.5959 24.0704 16.5959C24.7409 16.5959 25.2845 16.0688 25.2845 15.4186C25.2845 11.5173 22.023 8.35461 17.9998 8.35461C17.3292 8.35461 16.7856 8.88172 16.7856 9.53194C16.7856 10.1822 17.3292 10.7093 17.9998 10.7093Z" fill="#1575E5"/>
</svg>
