<svg width="36" height="38" viewBox="0 0 36 38" fill="none" xmlns="http://www.w3.org/2000/svg">
<rect width="36" height="37.125" rx="12" fill="#5563BF" fill-opacity="0.3"/>
<path d="M26.1019 8.34743C27.1374 8.45461 27.9495 9.16142 28.1526 10.214C28.4532 11.7719 28.8002 14.6242 28.8002 19.4906C28.8002 24.357 28.4532 27.2092 28.1526 28.7672C27.9495 29.8197 27.1374 30.5265 26.1019 30.6337C24.693 30.7795 22.1983 30.9375 18.0002 30.9375C13.8021 30.9375 11.3074 30.7795 9.89846 30.6337C8.86299 30.5265 8.05094 29.8197 7.84783 28.7672C7.54721 27.2092 7.2002 24.357 7.2002 19.4906C7.2002 14.6242 7.54721 11.7719 7.84783 10.214C8.05094 9.16142 8.86299 8.45461 9.89846 8.34743C11.3074 8.2016 13.8021 8.0437 18.0002 8.0437C22.1983 8.0437 24.693 8.2016 26.1019 8.34743Z" fill="#A6CFFF"/>
<path fill-rule="evenodd" clip-rule="evenodd" d="M21.0683 6.21772C22.1182 6.23977 22.9102 7.19546 22.7872 8.27087L22.6468 9.49865C22.5399 10.4333 21.7717 11.1375 20.8592 11.1375H15.1428C14.2303 11.1375 13.4621 10.4333 13.3552 9.49865L13.2148 8.27087C13.0918 7.19547 13.8838 6.23978 14.9336 6.21773C15.8458 6.19857 16.8647 6.18747 18.0012 6.18747C19.1375 6.18747 20.1563 6.19857 21.0683 6.21772Z" fill="#1575E5"/>
<path d="M12 23.8218C12 22.9347 12.5506 22.2818 13.4108 22.2753C13.4399 22.2751 13.4697 22.275 13.5 22.275C13.5303 22.275 13.5601 22.2751 13.5892 22.2753C14.4494 22.2818 15 22.9347 15 23.8218C15 24.709 14.4494 25.3619 13.5892 25.3684C13.5601 25.3686 13.5303 25.3687 13.5 25.3687C13.4697 25.3687 13.4399 25.3686 13.4108 25.3684C12.5506 25.3619 12 24.709 12 23.8218Z" fill="#1575E5"/>
<path d="M16.8132 23.2997C16.8441 22.7409 17.2598 22.3688 17.8011 22.3289C18.2004 22.2994 18.7559 22.275 19.4998 22.275C20.2437 22.275 20.7992 22.2994 21.1985 22.3289C21.7398 22.3688 22.1555 22.7409 22.1864 23.2997C22.1947 23.4495 22.1998 23.6225 22.1998 23.8218C22.1998 24.0211 22.1947 24.1942 22.1864 24.344C22.1555 24.9027 21.7398 25.2748 21.1985 25.3148C20.7992 25.3443 20.2437 25.3687 19.4998 25.3687C18.7559 25.3687 18.2004 25.3443 17.8011 25.3148C17.2598 25.2748 16.8441 24.9027 16.8132 24.344C16.8049 24.1942 16.7998 24.0211 16.7998 23.8218C16.7998 23.6225 16.8049 23.4495 16.8132 23.2997Z" fill="#1575E5"/>
<path d="M12 17.6343C12 16.7472 12.5506 16.0943 13.4108 16.0878C13.4399 16.0876 13.4697 16.0875 13.5 16.0875C13.5303 16.0875 13.5601 16.0876 13.5892 16.0878C14.4494 16.0943 15 16.7472 15 17.6343C15 18.5215 14.4494 19.1744 13.5892 19.1809C13.5601 19.1811 13.5303 19.1812 13.5 19.1812C13.4697 19.1812 13.4399 19.1811 13.4108 19.1809C12.5506 19.1744 12 18.5215 12 17.6343Z" fill="#1575E5"/>
<path d="M16.8251 17.0219C16.8714 16.5105 17.2794 16.1993 17.7762 16.1639C18.315 16.1256 19.1616 16.0875 20.3998 16.0875C21.638 16.0875 22.4846 16.1256 23.0234 16.1639C23.5202 16.1993 23.9282 16.5105 23.9745 17.0219C23.9899 17.1913 23.9998 17.3937 23.9998 17.6343C23.9998 17.875 23.9899 18.0774 23.9745 18.2468C23.9282 18.7582 23.5202 19.0693 23.0234 19.1047C22.4846 19.1431 21.638 19.1812 20.3998 19.1812C19.1616 19.1812 18.315 19.1431 17.7762 19.1047C17.2794 19.0693 16.8714 18.7582 16.8251 18.2468C16.8097 18.0774 16.7998 17.875 16.7998 17.6343C16.7998 17.3937 16.8097 17.1913 16.8251 17.0219Z" fill="#1575E5"/>
</svg>
