<svg width="37" height="36" viewBox="0 0 37 36" fill="none" xmlns="http://www.w3.org/2000/svg">
<rect x="0.733398" y="0.5" width="35" height="35" rx="17.5" fill="url(#paint0_linear_741_2615)"/>
<rect x="0.733398" y="0.5" width="35" height="35" rx="17.5" stroke="url(#paint1_linear_741_2615)"/>
<path d="M21.5061 7.5C23.9161 7.5 25.8698 9.33799 25.8698 11.6053C25.8698 12.3535 25.6569 13.0549 25.2853 13.659L30.2334 13.6579V15.7105H28.0516V25.9737C28.0516 26.5405 27.5632 27 26.9607 27H9.50612C8.90364 27 8.41521 26.5405 8.41521 25.9737V15.7105H6.2334V13.6579L11.1815 13.659C10.8098 13.0549 10.597 12.3535 10.597 11.6053C10.597 9.33799 12.5507 7.5 14.9607 7.5C16.2645 7.5 17.4349 8.03801 18.2344 8.89093C19.032 8.03801 20.2023 7.5 21.5061 7.5ZM19.3243 15.7105H17.1425V25.9737H19.3243V15.7105ZM14.9607 9.55263C13.7557 9.55263 12.7788 10.4716 12.7788 11.6053C12.7788 12.6874 13.6689 13.5739 14.7978 13.6523L14.9607 13.6579H17.1425V11.6053C17.1425 10.5773 16.3393 9.72576 15.291 9.576L15.1235 9.55826L14.9607 9.55263ZM21.5061 9.55263C20.3559 9.55263 19.4136 10.39 19.3303 11.4521L19.3243 11.6053V13.6579H21.5061C22.6563 13.6579 23.5986 12.8205 23.6819 11.7585L23.688 11.6053C23.688 10.4716 22.7112 9.55263 21.5061 9.55263Z" fill="url(#paint2_linear_741_2615)"/>
<defs>
<linearGradient id="paint0_linear_741_2615" x1="18.2334" y1="0" x2="18.2334" y2="36" gradientUnits="userSpaceOnUse">
<stop stop-color="#243055"/>
<stop offset="1" stop-color="#141B40"/>
</linearGradient>
<linearGradient id="paint1_linear_741_2615" x1="18.2334" y1="0" x2="18.2334" y2="36" gradientUnits="userSpaceOnUse">
<stop stop-color="#5460A5"/>
<stop offset="1" stop-color="#121736"/>
</linearGradient>
<linearGradient id="paint2_linear_741_2615" x1="18.2334" y1="7.5" x2="18.2334" y2="27" gradientUnits="userSpaceOnUse">
<stop stop-color="#B4BDF2"/>
<stop offset="1" stop-color="#383E5F"/>
</linearGradient>
</defs>
</svg>
