<svg width="96" height="22" viewBox="0 0 96 22" fill="none" xmlns="http://www.w3.org/2000/svg">
<path d="M0.250001 21C0.250001 21.4142 0.585788 21.75 1 21.75C1.41421 21.75 1.75 21.4142 1.75 21L0.250001 21ZM1.75 21L1.75 4L0.25 4L0.250001 21L1.75 21ZM4 1.75L92 1.75L92 0.249997L4 0.25L4 1.75ZM94.25 4L94.25 21L95.75 21L95.75 4L94.25 4ZM92 1.75C93.2426 1.75 94.25 2.75736 94.25 4L95.75 4C95.75 1.92893 94.0711 0.249997 92 0.249997L92 1.75ZM1.75 4C1.75 2.75736 2.75736 1.75 4 1.75L4 0.25C1.92893 0.25 0.25 1.92893 0.25 4L1.75 4Z" fill="#F09E09"/>
</svg>
