<svg width="196" height="22" viewBox="0 0 196 22" fill="none" xmlns="http://www.w3.org/2000/svg">
<path d="M0.250001 21C0.250001 21.4142 0.585788 21.75 1 21.75C1.41421 21.75 1.75 21.4142 1.75 21L0.250001 21ZM1.75 21L1.75 4L0.25 4L0.250001 21L1.75 21ZM4 1.75L192 1.74999L192 0.249993L4 0.25L4 1.75ZM194.25 3.99999L194.25 21L195.75 21L195.75 3.99999L194.25 3.99999ZM192 1.74999C193.243 1.74999 194.25 2.75735 194.25 3.99999L195.75 3.99999C195.75 1.92892 194.071 0.249993 192 0.249993L192 1.74999ZM1.75 4C1.75 2.75736 2.75736 1.75 4 1.75L4 0.25C1.92893 0.25 0.25 1.92893 0.25 4L1.75 4Z" fill="#F09E09"/>
</svg>
